<svg id="Capa_1" data-name="Capa 1" xmlns="http://www.w3.org/2000/svg" viewBox="0 0 500 300"><defs><style>.cls-1{fill:#fff;}</style></defs><title>Mesa de trabajo 1</title><path class="cls-1" d="M270.76,147.85c.24.51.49.81.49,1.11s-.41.33-.64.5c-.19-.27-.49-.53-.54-.83s.34-.4.69-.78Z"/><path class="cls-1" d="M276.86,184.62c-1.67,1.22-1.67,1.22-1.53,2.6l1.53-2.6Zm-16.87-22c.33-1.56,1.52-3.1,0-5.18a12.82,12.82,0,0,0,0,5.18Zm22.44,7.73c-.87.59-1.49,1-2.06,1.42s-1.36,1.15-2.1,1.78c3,1.5,4.27.55,4.16-3.2Zm13.08,1.56.35.36a23.92,23.92,0,0,0,5.86-4.33,6.13,6.13,0,0,0,1.21-2.12,1.52,1.52,0,0,0-.38-1.29,1.14,1.14,0,0,0-1.12,0,12.76,12.76,0,0,0-2.75,2.41c-1.19,1.57-2.13,3.33-3.17,5ZM275,180.8c2.09,1.85,3.09,1.84,4.77.48,1.14-.92,2.4-1.7,3.62-2.52.43-.28.92-.49,1.55-.82l-2.57-2.39L275,180.8Zm9.77-15.29c2.49,1.89,3.49,1.94,5.71.24a5.13,5.13,0,0,0,1.36-1.43c.76-1.33,1.59-2.7.85-4.53-3.11,1.39-5.28,3.87-7.92,5.72Zm-1.64,9.19a6.6,6.6,0,0,1,1.24,1.09c1.67,2.24,2.72,1.31,3.84-.65a8.35,8.35,0,0,0,.7-1.59c.81-2.43.31-3.65-2.1-5.17l-2.58,1c-.4,1.92-.72,3.51-1.1,5.35Zm-6.39.88c-.2-.56-.62-1.12-.53-1.57a5.91,5.91,0,0,1,5.6-5.12,10,10,0,0,0,3.68-1.33,3,3,0,0,0-3.79-.44c-1.27.66-2.65,1.36-4.16.38a1.4,1.4,0,0,0-1.16.14c-1.3.68-2.56,1.44-4,2.26l1.64,1.88,1.25-1.83a5.1,5.1,0,0,1,.14,4.72c-.47,1.25-.21,2.32,0,3.88l4.86-3c-2.17-.88-2.17-.88-3.5,0Zm12.78,4.07c-1.44-.41-2.43.23-3.44.74a32.73,32.73,0,0,1-4.4,2.27,8.05,8.05,0,0,0-4.58,4.25c-.5.92-1.19,1.8-.93,2.92,2.4-1.21,4.8-2.29,7.07-3.59a40.69,40.69,0,0,0,4.85-3.41,3.34,3.34,0,0,0,1.43-3.18Zm-34.05,17c-5.15,6.94-10.89,12.67-18.68,16.19,1.85.54,3.68.86,5.5,1.24a4.14,4.14,0,0,0,3.08-.57,28.76,28.76,0,0,0,7.44-6.18l3-3.57a8.4,8.4,0,0,1-2.12,4c-.93,1.17-1.85,2.36-2.89,3.43s-2.23,2.08-3.62,3.36c1.14.1,1.87.11,2.58.25,1.82.34,3.08-.39,4.38-1.66,4.62-4.48,6.44-10.37,8.41-16.19a1.26,1.26,0,0,0-.78-1.7c-1.65,2.14-3.9,2.14-6.31,1.36Zm-14.92-25.74c2.18-1.26,1.23-3.57,2-5.4l-8.75-5.31a2.69,2.69,0,0,1,1.87.38c3.28,1.71,6.18,4.15,10,4.88a13.12,13.12,0,0,1,2.89,1.32c1.07-2.44.43-4.08-1.74-5.29a28.09,28.09,0,0,1-3.22-2.34c-.62-.47-1.21-1-1.81-1.48,2.4.91,4.33,2.53,6.52,3.91.25-1.19-.41-1.73-.84-2.41-.76-1.19-.67-1.73.32-2.87.22-.24.47-.46.7-.69h0c1.54.82,2.43-.36,3.68-1.28a22.77,22.77,0,0,0-1.26-2.58c-1-1.6-2.2-3.13-3.29-4.7a6.34,6.34,0,0,1-.46-1l.25-.12,3.82,4.65a14.49,14.49,0,0,0-3.54-7.6,22.24,22.24,0,0,1-3.75-6.72c-.76-2-.44-3.1,1.41-4.22a16.21,16.21,0,0,1,3.2-1.24,15.26,15.26,0,0,1,1.93-.38c-2.78-6.34-5.46-12.47-8.14-18.6l.49-.22c2.89,6.23,5.79,12.45,8.75,18.8,2.77-.42,5.54-1,8.38-.47a15.23,15.23,0,0,0,3.21.34,10.33,10.33,0,0,1,7.19,2.27,2,2,0,0,0,1.52.44c1.2-.43,1.91.16,2.64.89a10.19,10.19,0,0,1,2.31,4.35c.25.8,0,1.87,1,2.35-.06,1.74,0,3.49-.21,5.22s-.52,3.2-.79,4.8a2.38,2.38,0,0,0,.82-1.31c.77-2.87.37-5.77.16-8.66-.32-1.71-.66-3.41-1-5.12-.37-2-.74-4.08-1-6.13a2.52,2.52,0,0,1,.24-1.43c1.44-2.81,1.33-5.84,1-8.77a85.14,85.14,0,0,0-2.06-10.74c-1.13-4.6-2.29-9.21-4.87-13.29-1.15-1.83-2.46-3.56-3.53-5.43-1.24-2.18-3.14-2.3-5.38-2.19a4.57,4.57,0,0,0,.36.8,39.94,39.94,0,0,1,5.72,10.47,106.63,106.63,0,0,1,4.8,15.71c1.1,4.79,2,9.61,1.5,14.57-.05.53,0,1.11-.59,1.26-.26-3.46-.34-6.88-.83-10.24a79.4,79.4,0,0,0-7.26-23.74,87.19,87.19,0,0,0-4.93-8.08A3.82,3.82,0,0,0,258.67,87c-.63-.36-3.2-.23-4.24.08,9.49,11.46,14.21,36,12.75,42.19-.59-3.73-.88-7.5-1.54-11.21s-1.62-7.29-2.56-10.91a48.27,48.27,0,0,0-4.24-10.62c-1.81-3.36-3.71-6.66-5.5-9.86-3.59-.17-4.31,0-6.83,1.51a5.66,5.66,0,0,1-3.34.77,5.49,5.49,0,0,0-2.67,0c.35.8.65,1.46,1.09,2.46-1.74-.85-1.86-3.89-4.53-2.35.88,1.44,1.74,2.75,2.52,4.11s1.53,2.77,2.25,4.17,1.52,3,2.18,4.49c.58,1.36,1.5,2.63,1.52,4.8-3.17-6.38-5.92-12.33-9.67-17.7-2.92,0-5,1.46-6.94,3.14.33.73.63,1.38.92,2l-.31.14-1.7-1.89a40.31,40.31,0,0,1-4.93,1.8,9,9,0,0,0-5.16,3.57l-.2.19c-1,1.1-.24,2,.33,2.91q3.72,5.76,7.52,11.47,8.51,12.78,17,25.53c.24.37.42.78.63,1.17l-.42.26c-1.81-2.45-3.66-4.88-5.42-7.36q-10.59-15-21.15-30c-.5-.72-1.13-1.35-1.57-1.88-3.29.65-4.91,2.77-6.25,5.2.23.32.35.53.51.72,4.73,5.37,9.52,10.68,14.18,16.11,6.39,7.45,12.71,15,19,22.48,2.19,2.62,4.28,5.31,6.39,8a8.24,8.24,0,0,1,.73,1.38c-2.11-.84-3-2.75-4.34-4.23s-2.78-3.32-4.19-5-2.75-3.12-4.12-4.68-2.85-3.25-4.26-4.89-2.7-3.17-4-4.75-2.8-3.3-4.21-4.94-2.7-3.16-4.07-4.73-2.86-3.25-4.28-4.88-2.72-3.15-4.08-4.72l-4.25-5-1.43,1.16a3.64,3.64,0,0,1,1.23,2.38l-2.19-1.81c-.65.72-1.24,1.31-1.76,2a13.77,13.77,0,0,0-1.27,1.85,4.81,4.81,0,0,0,.95,6.24c2.64,2.54,5.33,5,8,7.55q6.32,6,12.61,12.08a20.16,20.16,0,0,1,1.34,1.57c-3.67-1.55-6.1-4.5-8.92-7s-5.67-5.13-8.46-7.74-5.51-5.27-8.2-7.85c-1.32.25-2.1.84-2.34,1.79,4.94,4.92,10.42,8.92,15.25,13.64-.11.12-.21.25-.31.37L196,119.55a25.25,25.25,0,0,0-2.94,7.27c4.24,3.22,8.34,6.48,12.6,9.51,9.83,7,19.74,13.87,29.61,20.8.67.47,1.28,1,1.93,1.54l-.2.21c-2.27-1.37-4.61-2.63-6.79-4.13q-17.37-11.92-34.68-24c-1.08-.75-2.12-1.56-3.21-2.37a3.46,3.46,0,0,0-.53,3.14c3.38,2.23,6.71,4.42,10,6.63.55.37,1.07.78,1.6,1.18.06,0,.14.14.13.2s-.12.1-.42.32l-11.36-7.32c-.49,1.47-1,3-1.55,4.6,3.84,2.45,7.54,4.83,11.26,7.17,6.34,4,12.7,7.93,19,11.92.53.33,1.42.42,1.36,1.65-11.38-5.29-21.8-12-32.56-18.66-.21,2.7-.39,5.07-.56,7.33l13.1,8.16a.32.32,0,0,1,.12.21s-.08.09-.22.26a96.49,96.49,0,0,1-12.3-6.68c-.43,1,.18,1.35.76,1.67,2.25,1.26,4.47,2.58,6.78,3.7,6.8,3.32,13.64,6.55,20.46,9.83a15.65,15.65,0,0,1,1.66,1.09,5.36,5.36,0,0,1-1.24,0,241.83,241.83,0,0,1-28.62-12.72v3c1.23.53,2.37,1,3.51,1.52s2.12,1,3.17,1.46,2.26,1.06,3.36,1.64a7.4,7.4,0,0,1,2.83,1.88c-4.53-1.22-8.56-3.53-12.76-5.52-.38,1.75-.37,2.2.18,4.86,14.92,6.75,30.28,12.59,46.46,16.13-15.63-2.09-30.2-7.84-44.88-13.3-.5,1.79.3,2.52,1.66,3q9.13,2.91,18.27,5.85a4.14,4.14,0,0,1,2.51,1.26c-7.51-1.69-14.61-4.09-22-6.52.22,1.14.38,1.93.54,2.79,1.59.5,3.09,1,4.59,1.43s2.89.78,4.33,1.2,2.91.46,4.15,1.34c-4.2-.18-8.1-1.75-12.13-2.66.73,3,2.66,4.28,5.44,4.45a5.6,5.6,0,0,1,.95.26,189.26,189.26,0,0,0,32.17,5.22c1.8.14,3.6.38,5.4.57-3.56.62-7.06-.06-10.57-.31s-7.26-.82-10.87-1.37-7-1.27-10.55-1.85-6.91-2-10.66-2.54c0,.7,0,1.1.11,1.49a13.89,13.89,0,0,0,.39,1.38c.58.18,1,.36,1.53.47,7.48,1.57,15,2.71,22.61,3.67,2.22.28,4.51.29,6.6,1.3-10.21-.42-20.19-2.42-30.23-4.36.32,2.75,1.78,4.49,4.19,4.95a113.43,113.43,0,0,0,17.36,1.6,3.81,3.81,0,0,1,2.54.46c-2.14.75-4.34.41-6.5.36s-4.48-.2-6.72-.36-4.39-.37-7-.59c1,2.08,1.68,3.85,2.59,5.51a5,5,0,0,0,4.67,2.67c10.14.28,20.06-1.31,29.92-3.32a50.65,50.65,0,0,0,7.07-2.38c.3-.11.72-.7.64-.9s-.6-.56-1-.87a2.72,2.72,0,0,0,1.88-2.63c-1.8,0-3.48.58-5.36.12-1.66-.4-3.58.28-5.39.4a21.74,21.74,0,0,1-2.54-.14v-.41l7.58-.59a33.4,33.4,0,0,1,1.41-3.4,29.7,29.7,0,0,1,2-2.85c-.82-.16-1.31-.22-1.79-.35-1.91-.54-2.31-1.19-1.7-3.08.35-1.09.9-2.12,1.36-3.18l-.07.08Zm38.88-7.3,0,0c.11.55.22,1.1.33,1.67,3.21.6,5.1-1.41,7.54-3.38a3.63,3.63,0,0,0-2.87,1.11c-1.11,1.05-2.23,1.65-3.66.59-.12-.09-.34-.06-.65-.11a11.26,11.26,0,0,0,1.46-2.23c.38-1.08,1.47-.22,2-1,2.23-3.22,4.48-6.41,5.63-10.22.28-.92.43-1.74-.37-2.42l-1.91.48a4.27,4.27,0,0,1-.63-3.41c.66-3.46,0-6.78-1.05-10.06a7.69,7.69,0,0,0-2.81-4,2.93,2.93,0,0,0-.64-.25l-1.27,1.18-2-1.22a13.63,13.63,0,0,0,.38,2A33.58,33.58,0,0,1,280.72,143a18.48,18.48,0,0,1-2,9.65c-.95,1.77-2,3.45-1.7,5.6.09.66-.18,1.31-1.39,1.39.14-2.59-.2-5.09.08-7.62.2-1.82.29-3.65.52-5.46a19.49,19.49,0,0,0-1.13-8.83,13.56,13.56,0,0,0-1.69-3,1.53,1.53,0,0,0-1.2-.65,2.25,2.25,0,0,1-2-.75,8.67,8.67,0,0,0-8.12-1.72.83.83,0,0,1-.56,0c-2.24-1-4.39-.42-6.49.42s-4.13,1.75-6.18,2.65c-.5.22-1,.5-1.69.88,1.71,2.29,3.18,4.51,4.91,6.51a13,13,0,0,1,3.4,10.8,7.48,7.48,0,0,0,.93,4.81,10,10,0,0,1,.47,1.18c-2.4.64-2.09-2.17-3.62-2.46-.27,2.13-2,1.69-3.79,1.89a23,23,0,0,1,1.28,2.31,28.26,28.26,0,0,1,1.74,4.64c.41,1.81-.72,3-2.6,3.17a5,5,0,0,1-3.05-.89c-1-.57-2-1.06-3.13-1.66a5.24,5.24,0,0,0-.5,1.38,7.31,7.31,0,0,1-1.88,5,4,4,0,0,0-1,3.29c.74.21,1.45.4,2.16.62.46.15,1.16.23,1.33.56.63,1.22,1.71,1.14,2.76,1.14,1.91,0,3.82-.05,5.73-.17a17,17,0,0,0,2.43-.55c-1.6-2.05-3.81-.78-5.59-1.73l3.36-.31c-.51-.88-.51-.88-4.21-1.73l2.8-.21c0-.1,0-.21,0-.31l-5.8-1.61a19.6,19.6,0,0,1,4.74.41,2.74,2.74,0,0,0,2.9-.82c1.28-1.43,2.89-1.47,4.54-.57.36.2.72.42,1.07.64a2.34,2.34,0,0,0,2.8,0c.58-.4,1.15-.83,2-1.44a11.67,11.67,0,0,0-2.14-1.6,4.28,4.28,0,0,1-2.86-4.28c0-2.23.39-4.45.63-6.68,0-.22.24-.42.31-.55,2.23.93,2.64,1.47,2.46,3.36-.11,1.15-.45,2.29-.53,3.44-.14,2.18.56,2.89,2.87,3-.12-.67-.26-1.3-.35-1.93-.28-2.06.45-3.21,2.4-3.74a18.52,18.52,0,0,1,2.44-.5,2.34,2.34,0,0,1,2.89,2,7.38,7.38,0,0,1,.15,1l7.78.62ZM228.1,210.69l-.06-.06c.83.87,1.81.66,2.78.35,1.24-.39,2.48-.81,3.72-1.22a2.72,2.72,0,0,0,.11.25l-2.88,1.67c1.09.88,2,.4,2.9.09A37.93,37.93,0,0,0,249,202.44a25.23,25.23,0,0,0,4.6-5.55,2.39,2.39,0,0,0-3,.82c-.59.67-1,1.72-2.46,1.55l1.65-2.31c-1.74-.42-2.36,1-3.44,1.51s-2.24,1.31-3.71,1.29l4.75-3.52-2.18-5.13-5.2,1.61c1.4-1.54,3.54-1.65,5.05-2.9-.56-.95-1.07-.53-1.57-.26a34.33,34.33,0,0,1-8.89,3.18,157,157,0,0,1-25.91,3.41c-.77,0-1.63-.22-2.46.47.67.81,1.21,1.53,1.82,2.2,1.9,2.08,4.06,3.27,7.06,2.57,3.32-.76,6.69-1.28,10-1.89.57-.1,1.17-.1,1.76-.15-4,2.59-8.59,3-13.42,4.1,1.58.86,2.69,1.48,4.12,1.09,3.92-1.07,7.86-2.08,11.78-3.14,1.26-.34,2.5-.74,3.74-1.11-4.54,2.34-9.44,3.6-14.55,4.85,1.75,1.2,1.75,1.2,3.13.83,2.08-.55,4.16-1.12,6.26-1.65a5.13,5.13,0,0,1,1.24,0c0,.15.05.29.08.44l-7.45,2.63c1.51,2.54,3.94,2.85,6.27,3.32Zm37.56-31-.09-.08c-.17,2-.34,4.11-.47,5.7l-3.07,2.8c-.25.22-.47.55-.75.63-.6.17-1.37.46-1.82.23a2.32,2.32,0,0,1-.84-1.63,5.38,5.38,0,0,1,.4-1.93c.35-1.1.75-2.19,1.12-3.26-2.3-1.15-2.34-1.33-.92-3.23a2.36,2.36,0,0,0,.79-2.8,23.27,23.27,0,0,1-16.15,2.08c-1.15,1.36-2.62,2.59-2.51,4.74a18.59,18.59,0,0,0,8.23-2.06c-.93-.55-2.21.18-3-.85,2.76-.68,7.47-.94,7.62-.44l-.8.52,1.44,1.63c-2.58,1.82-5.79,2.8-6.64,6.22l1.06,1.63c-1.79,2-1.33,4,0,5.93.42,0,.75,0,1.07-.07,2.37-.27,4.73-.67,7.11.11a2.33,2.33,0,0,0,3-1.22,11.24,11.24,0,0,0,1.18-3c.35-1.72.77-2.31,2.4-2.59s2.14.47,1.81,2a5.72,5.72,0,0,0-.32,2.63,6.63,6.63,0,0,0,2.36,3.68A7,7,0,0,0,271.3,193a25.25,25.25,0,0,0,1.59-5.74,5.14,5.14,0,0,1,2-3.71c-1.5-1.11-1.42-2.46-1.32-4a20.45,20.45,0,0,0-.74-5.63,2.71,2.71,0,0,0-2-2.34c-.62.32-1,.75-.6,1.41.28.51.69.95,1,1.45.38.69,1.19,1.44.37,2.21s-1.57.2-2.26-.28a11.57,11.57,0,0,1-1.15-1.13L270,175a2.75,2.75,0,0,0-.29-.72c-.36-.44-.76-.85-1.14-1.27.31-2.68.31-2.68,2.87-3.41a.84.84,0,0,0,.4-.27,2.34,2.34,0,0,0,.24-.5l-1.76-.73c-1.42-2,0-4.28-.73-6.37a11,11,0,0,0-1.53.17c-2.37.62-2.69,1.28-1.76,3.54.54,1.3,1.13,2.57,1.6,3.89.12.34-.15.81-.25,1.23-1.37-.1-1.76-2-3.47-1.11l-1,3.7a11.16,11.16,0,0,0-2.51-.35,4.71,4.71,0,0,1-3.29-.84,2.91,2.91,0,0,0-2.8-.61c-.14,0-.23.22-.36.34.1.34.19.68.28,1l-1.67.6c.81,1,1.4,1.91,2.11,2.68a1.85,1.85,0,0,0,2.49.36c.36-.21.72-.42,1.09-.6,2.12-1,3.33-.3,3.41,2.07,0,.38,0,1,.17,1.1,1.46,1,.81,2.17.5,3.35s-1,2.08-.84,3.46a4.61,4.61,0,0,0,1.72-2.81c.24-.7.34-1.45.54-2.17a1.37,1.37,0,0,1,1.72-1Zm29.26-33.52c1.41-2,2.79-3.92,4.24-5.83a61.86,61.86,0,0,0,7.09-13.13,4.79,4.79,0,0,0-.76-5.48c-.21-.25-.46-.48-.68-.71h0c-.12-1.84-1.48-3-2.37-4.82a7,7,0,0,0-.95,2.77c-2,8.6-5.39,16.58-11,23.49-.41.52-.88,1-1.34,1.47-.09.08-.27.07-.71.16a11.06,11.06,0,0,1,.86-1.55c6.82-8.37,9.52-18.28,10.85-28.75a6.66,6.66,0,0,0-1.38-4.59c-.26-.41-.56-.78-1-1.41-.6,3.94-1.08,7.58-1.72,11.2a38.91,38.91,0,0,1-3.45,10.35,10.81,10.81,0,0,1,.25-1.51,69.26,69.26,0,0,0,3.29-19.09c.09-3.62,0-3.77-3.36-6.18-.2.74-.38,1.42-.57,2.11l-.4,0c-.09-.94-.18-1.88-.27-2.89l-1.57-1.15-1.67-1.21c1.16,8.16.13,16-1.52,23.83.89-8.08,1.63-16.17.28-24.38-1.46-1.31-3.09-2.78-4.77-4.31.68,2.63,1.43,5.15,2,7.71a51.84,51.84,0,0,1,1.31,15.35,74.45,74.45,0,0,1-1.52,8.81,7.79,7.79,0,0,1-1,1.92c.29-1.38.58-2.76.86-4.14a37.18,37.18,0,0,0,1-10.61c-.2-2.39-.49-4.79-.88-7.16-.7-4.17-1.45-8.34-3.41-12.17a4.36,4.36,0,0,0-1.82-1.93,36.06,36.06,0,0,0-9.06-3.4,20.74,20.74,0,0,0-2.29-.27c.7.84,1.12,1.32,1.52,1.83a27.74,27.74,0,0,1,5.16,10.13c.49,1.76.9,3.54,1.27,5.32,1.44,6.9,2.66,13.82,1.84,21l1,.65,1.19.78c1.7-.57,1.7-.57,3.63-.1a2.1,2.1,0,0,0,.33.63c3.13,3,4.2,6.86,4.24,11.08,0,1.49,0,3,0,4.53l.7.22c2,.52,2.6,1.34,2,3.18-.73,2.29-1.68,4.5-2.58,6.72-.34.82-.83,1.57-1.37,2.56,1.59,0,2.83.13,3.51-1.51.33-.78,1.22-1.34,1.91-1.94a88,88,0,0,0,10.83-11c1.34-1.69,2.58-3.44,4.14-5.06a8.85,8.85,0,0,1-.52,1.39,58,58,0,0,1-11.82,13.75c-1.18,1-2.42,2-3.77,3.13.26.14.41.29.58.31,2.41.33,3.05.93,3.13,3.29a7.91,7.91,0,0,1-3.64,7.22c-.61.41-1.29.73-1.94,1.09.53,1.27,1.37,2.49,1.51,3.78s-.46,2.55-.76,4a3.44,3.44,0,0,0,2.31-1.41c1.28-1.62,2.44-3.34,3.63-5,1-1.43,1.9-2.93,3-4.29a4.71,4.71,0,0,1,3.17-1.82,1.94,1.94,0,0,1,2.4,2.12,4.71,4.71,0,0,1-.73,2.33,12.82,12.82,0,0,1-2.54,2.71c-1.77,1.36-3.7,2.53-5.52,3.84-.79.55-1.48,1.24-1.94,1.62-.32,1.45,1.12,2.16.4,3.22-.14.21-.55.25-.89.38-.32-1.18-.62-2.26-.92-3.38l-4.26,2c.52.19.74.28,1,.35,1.95.53,2.48,1.47,1.5,3.23a10,10,0,0,1-2.5,3.05,59.49,59.49,0,0,1-5.8,3.85,16.72,16.72,0,0,0-4.92,3.7c.17.89.85,1,1.49,1.12a7.26,7.26,0,0,0,4.37-.67c1.48-.72,2.9-1.59,4.7-1.39.48.06,1.07-.37,1.54-.69,1.3-.9,2.55-1.86,3.84-2.78.73-.51,1.5-1,2.2-1.43.19.13.3.17.32.23s-.06.15-.11.2L289,191.93c.46,1.27,1,2.6.13,3.95a6.51,6.51,0,0,1-4.27,2.86,36,36,0,0,0,3.26-2.79c1.12-1.21,1-1.74-.16-3.24-1.52.77-3,1.67-4.61,2.3a17.17,17.17,0,0,1-4.77,1.26c-2.61.19-3.91-1.29-3.9-4a11.64,11.64,0,0,0-.21-2.74,12.45,12.45,0,0,0-2.25,7.52c-.12-.54-.23-1.08-.38-1.77-1.56,1-2.58,2.8-4.64,2.76-1,2.74-1,5.74-2.88,8-.08-2.73,1.91-5,1.73-8.32-1.88,2.39-1.72,5.09-3.42,7.36.12-.72.14-1.12.24-1.49.44-1.52.93-3,1.35-4.54.23-.82.19-.84-1.08-1.81-1.56,6.41-3.72,12.47-8.92,17,1.44.42,3.84.56,4.49.19a4,4,0,0,0,1.25-1.17c.75-1.09,1.41-2.25,2.14-3.37a2.8,2.8,0,0,1,1.48-1.28L261.54,214c1.63-.11,1.41-1.68,2.39-2.25v1.7c1.14.11,1.53-.66,1.88-1.36a33.3,33.3,0,0,0,3.45-9.82c.25-1,.51-1.92.77-2.87,1.09.63.57,1.68.39,2.39-.79,3-1.75,5.88-2.68,8.8a16,16,0,0,1-.81,1.83c2.62-.12,3.26-.52,4.06-2.84a47.39,47.39,0,0,0,2.13-10.22,16.07,16.07,0,0,1,.64-3.05c.48,4.68-.12,8.72-2.06,14.39a8.66,8.66,0,0,0,4.39-2c.32-.22.39-.88.46-1.35a25.57,25.57,0,0,1,1-4.59c0,.81,0,1.63,0,2.43s-.16,1.64-.27,2.66c1.06,0,1.78-.78,2.63-1.13a6.8,6.8,0,0,1,2.59-.76,9.79,9.79,0,0,1-1,.87,54.25,54.25,0,0,1-29.7,9.68A86.41,86.41,0,0,1,235.69,215a58.91,58.91,0,0,1-22.1-8,52.45,52.45,0,0,1-8.59-7.18A54.51,54.51,0,0,1,194.57,185a87.67,87.67,0,0,1-8.71-30.79c-.51-5.51.44-10.94,1.57-16.33a90.75,90.75,0,0,1,4.9-15.43,53.66,53.66,0,0,1,10-15.4,70.38,70.38,0,0,1,12.85-11.39c1.31-.89,2.48-2,3.86-2.75,3.92-2.13,7.66-4.59,12.11-5.69a100.14,100.14,0,0,1,18.45-2.76,62.61,62.61,0,0,1,16.08,1.65,11.84,11.84,0,0,0,4.19.3c4.07-.63,7.46,1.23,10.79,3.13,2,1.14,4,2.34,5.26,4.46a5.41,5.41,0,0,0,1.66,1.48c1.71,1.16,3.48,2.25,5.2,3.4a19.6,19.6,0,0,1,8.5,11,9.44,9.44,0,0,0,2.5,3.93c4,4.16,7,8.84,7.24,14.88a12.19,12.19,0,0,0,.81,3.37A55.28,55.28,0,0,1,315,150.36a58.18,58.18,0,0,1-3.25,18.83c-1,2.84-1.81,5.72-3,8.46a55.42,55.42,0,0,1-17.4,22.42c-1.58,1.21-3.19,2.4-4.83,3.53-.63.44-1.34,1-2.27.45,2.14-1.63,4.2-3.3,6.36-4.82,7.9-5.56,13.13-13.11,16.43-22.07,1.57-4.28,2.85-8.68,4.23-13,.26-.84.36-1.74.58-2.83l-5.37,1.61c-.06-.15-.11-.3-.17-.46,1.45-.64,2.91-1.27,4.36-1.93,1.69-.77,1.69-.79,1.44-3.15L309,158.71c.44-1.13,1.48-1.38,2.35-1.79a1.61,1.61,0,0,0,1-2.31l-7.18,3.6c.31-1.13,1.27-1.38,2-1.88s1.71-1,2.59-1.5,1.76-.9,2.7-1.37V150.7c-4.14,3-7.88,6.09-12.71,7.37.65-.47,1.29-1,2-1.42,3-2.09,6-4.21,9-6.25a3.47,3.47,0,0,0,1.71-3.57c-.14-1.14-.2-2.3-.33-3.85-1.85,1.7-3.39,3.25-5.07,4.61s-3.61,2.67-5.48,3.92a16.67,16.67,0,0,1-5.95,2.86c1.22-.81,2.43-1.64,3.66-2.44a74.2,74.2,0,0,0,11-8.63c1.36-1.3,1.95-2.51,1.12-4.36a40.66,40.66,0,0,1-1.42-4.5l-1,.22a1.78,1.78,0,0,1,0-.4c.14-.62.52-1.29.4-1.85-.38-1.84-.94-3.63-1.58-6-2.73,7.91-6.56,14.63-12.52,20l-.24-.22Z"/><path class="cls-1" d="M292,108.13c1.07,7.65-1.6,19.75-5,23.63.24-.83.33-1.28.5-1.71a65.35,65.35,0,0,0,3.72-13.87c.23-1.63.27-3.29.43-4.94.09-1,.23-2.07.35-3.11Z"/><path class="cls-1" d="M297.84,132.3l4.86-12.92c.09,2.58-2.58,9.86-4.86,12.92Z"/><path class="cls-1" d="M304.81,121a5.58,5.58,0,0,1,.15,1.7,23.88,23.88,0,0,1-3.57,8.29q1.69-5,3.41-10Z"/><path class="cls-1" d="M270,199.44c-.26.95-.52,1.91-.77,2.87L268.13,204a20.33,20.33,0,0,1,1.24-5.53l.66.95Z"/><path class="cls-1" d="M299.44,161.78l6.56-2.49a11.42,11.42,0,0,1-6.56,2.49Z"/><path class="cls-1" d="M288.1,139c.12-.26.21-.54.35-.79a32.55,32.55,0,0,1,2.4-3.89c-.52,1.77-1.09,3.51-2.75,4.68Z"/><path class="cls-1" d="M280.69,200.43a2.7,2.7,0,0,1,.53,3.07c-1-.9-.65-1.8-.53-3.07Z"/><path class="cls-1" d="M298.23,137.54a4.81,4.81,0,0,1,1.53-2.87,5.19,5.19,0,0,1-1.53,2.87Z"/><path class="cls-1" d="M295.16,146.4l-1.09,1.47a1.58,1.58,0,0,1,.85-1.69l.24.22Z"/><path class="cls-1" d="M243.54,90.1c.41.55.87,1.09,1.23,1.68a116.22,116.22,0,0,1,12.57,26.71c.66,2.14,1.15,4.33,1.63,6.51a4.7,4.7,0,0,1-.24,2.76,3.93,3.93,0,0,1-.65-1.13c-1.52-8.75-4.89-16.85-8.76-24.76-1.53-3.13-3.26-6.16-4.89-9.24-.42-.77-.8-1.57-1.19-2.35l.3-.18Z"/><path class="cls-1" d="M195.49,123.11c2.86,1.21,23.21,17.69,25,20.06-2.23-1-22.63-17.24-25-20.06Z"/><path class="cls-1" d="M190.26,158.86l32,11.48c0,.1,0,.2-.05.3a4.83,4.83,0,0,1-1.21-.11c-9.83-3.24-19.68-6.42-29.21-10.51-.6-.25-1.17-.59-1.75-.89l.24-.27Z"/><path class="cls-1" d="M245.7,157c-3.34-1.22-15.5-11.26-18.85-15.7a9.88,9.88,0,0,1,3.1,2c2.06,1.79,4.06,3.65,6.13,5.44,3.17,2.76,6.38,5.49,9.62,8.26Z"/><path class="cls-1" d="M259.8,110.58c-1.36-3.7-2.59-7.46-4.12-11.09s-3.32-7.15-4.8-10.8c4.32,6.73,8,13.74,8.92,21.89Z"/><path class="cls-1" d="M203.63,111l15.68,16.31-.3.38a5.16,5.16,0,0,1-1-.64q-7.08-7.2-14.12-14.44a6.59,6.59,0,0,1-.75-1.16l.49-.45Z"/><path class="cls-1" d="M217.74,97.77a14.73,14.73,0,0,1,1.81,1.62A116.39,116.39,0,0,1,230,114.91a4.24,4.24,0,0,1,.12,1c-.5-.68-.78-1-1-1.42q-5.58-8-11.16-15.91a4.12,4.12,0,0,1-.32-.67l.2-.19Z"/><path class="cls-1" d="M223.73,129.24q-6.31-7-12.64-14l.25-.36a5.19,5.19,0,0,1,1.21.73q3.93,4.32,7.79,8.69c1.3,1.48,2.53,3,3.79,4.51l-.4.39Z"/><path class="cls-1" d="M240.47,186.17c-2.41,1.48-9.88,2-16.12,1.18,5.18-.83,10.43-.59,16.12-1.18Z"/><path class="cls-1" d="M235.42,118.08c-3.19-4-6.9-10.8-7.1-13.1,2.09,2.41,6.8,11.11,7.1,13.1Z"/><path class="cls-1" d="M206.31,153.3a131.76,131.76,0,0,1-14.88-9.39,4.49,4.49,0,0,1,1.17.32c1.94,1.11,3.88,2.22,5.78,3.41,2.75,1.71,5.45,3.48,8.17,5.23l-.24.43Z"/><path class="cls-1" d="M235.2,94.1a40,40,0,0,1,7.68,13.72L235.2,94.1Z"/><path class="cls-1" d="M236.81,111.26a74,74,0,0,1-6.94-13.18,104.81,104.81,0,0,1,6.94,13.18Z"/><path class="cls-1" d="M246.93,129.22c-1.54-1.57-5.69-10.34-6-12.56,2.06,4.15,4.57,8.09,6,12.56Z"/><path class="cls-1" d="M224.54,118.57c-2.58-2.42-7-8.43-7.95-10.62a45.38,45.38,0,0,1,7.95,10.62Z"/><path class="cls-1" d="M232,93.25A68.4,68.4,0,0,1,238.34,106,96.76,96.76,0,0,1,232,93.25Z"/><path class="cls-1" d="M240.58,170.8a28.87,28.87,0,0,1-9.46-4.91,11.5,11.5,0,0,1,1.42.4c2.35,1,4.69,2.07,7,3.14.59.27,1.28.54.95,1.45l.07-.08Z"/><path class="cls-1" d="M224.57,167.13l12.21,3.78a37.48,37.48,0,0,1-12.34-3.24c.05-.18.09-.36.13-.54Z"/><path class="cls-1" d="M238,166.08a35.26,35.26,0,0,1-10.14-5.19A44.74,44.74,0,0,1,238,166.08Z"/><path class="cls-1" d="M192.15,136.34c1.77.31,5.07,2.25,8.78,5.15-2.33-.48-7.38-3.45-8.78-5.15Z"/><path class="cls-1" d="M241.16,149.23c-2.12-1.44-3.47-3.55-5.43-5.81a12.73,12.73,0,0,1,5.43,5.81Z"/><path class="cls-1" d="M199.21,181.78l6.48,1.56c-2.43.66-4.53-.11-6.6-1l.12-.53Z"/><path class="cls-1" d="M262.26,119.39a16.74,16.74,0,0,1,1.39,6.79c-1.25-2.11-1.09-4.49-1.39-6.79Z"/><path class="cls-1" d="M243.93,128.76l-3.14-6.32a23.55,23.55,0,0,1,3.61,6.15l-.47.17Z"/><path class="cls-1" d="M217.63,177.68c-2.39-.56-4.83-.92-6.94-2.42l7,1.94c0,.16-.05.32-.08.48Z"/><path class="cls-1" d="M217.73,136.73l5.25,4-.31.39a13.91,13.91,0,0,1-5.06-4.31l.12-.12Z"/><path class="cls-1" d="M244.38,95.67a20,20,0,0,1,2.8,6.47,16.09,16.09,0,0,1-2.8-6.47Z"/><path class="cls-1" d="M200.69,130l-4.79-3.2c2.16.17,3.54,1.61,5.16,2.66l-.37.54Z"/><path class="cls-1" d="M215.65,150.84l4.87,2.54a7.82,7.82,0,0,1-4.87-2.54Z"/><path class="cls-1" d="M226.67,98.83c-1.45-.84-2-2.36-3.25-3.86a6.39,6.39,0,0,1,3.2,3.9l0,0Z"/><path class="cls-1" d="M211.29,191.53h-4.81v-.17h4.81v.17Z"/><path class="cls-1" d="M212.34,102.25a3.59,3.59,0,0,1,2,2.59,3.67,3.67,0,0,1-2-2.59Z"/><path class="cls-1" d="M248.39,155.58c-1.83.44-2.31-1.11-3.14-2.16,1.43.15,2,1.59,3.13,2.16Z"/><path class="cls-1" d="M206.77,189.07h-3.9v-.2h3.94a1.18,1.18,0,0,1,0,.2Z"/><path class="cls-1" d="M197.2,174.15l3.58,1.08c0,.16-.09.33-.14.49l-3.61-1c.05-.18.11-.36.17-.54Z"/><path class="cls-1" d="M239.61,160.29l2.27,1c-.92,0-1.84-.1-2.23-1l0,0Z"/><path class="cls-1" d="M239.65,160.24a3.55,3.55,0,0,1-2.63-1.36l.2-.21,2.39,1.62,0,0Z"/><path class="cls-1" d="M217.61,136.85l-1.78-1.27a1.85,1.85,0,0,1,1.9,1.15l-.12.12Z"/><path class="cls-1" d="M226.62,98.87c.9.42,1,1.27,1,2.22-.32-.75-.63-1.51-1-2.26l0,0Z"/><path class="cls-1" d="M226.22,131.18l.88,1.39a7.4,7.4,0,0,1-.64-.44c-.23-.21-.42-.45-.63-.68l.39-.27Z"/><path class="cls-1" d="M208.21,143.23l-1.45-1.09.18-.29c.48.34,1,.67,1.44,1a2.42,2.42,0,0,1-.17.37Z"/><path class="cls-1" d="M252.46,124.35l-.36-1.48.27-.09.51,1.49-.42.08Z"/><path class="cls-1" d="M279,161.93c-.73-.2-1.18-.61-.95-1.42a6.62,6.62,0,0,1,.55-1.38,40.29,40.29,0,0,0,4.42-17,3.54,3.54,0,0,1,.23-1.19,25.63,25.63,0,0,1-.94,11.48c-.66,2.39-1.71,4.67-2.56,7-.31.85-.55,1.73-.82,2.6l.07-.1Z"/><path class="cls-1" d="M269,158.44a74.51,74.51,0,0,0-5.93-23.65c3.42,4.27,6.51,18,5.93,23.65Z"/><path class="cls-1" d="M257.79,138.13c3.71,4.15,7.72,12.9,7.64,16.18l-7.64-16.18Z"/><path class="cls-1" d="M271.47,148.42c.12.11.31.21.34.34a27.05,27.05,0,0,1-.51,10.72c.08-3.86.15-7.49.23-11.11l-.06,0Z"/><path class="cls-1" d="M279.39,163.58c-.13-.55-.25-1.1-.38-1.65l-.07.1,3.47-6.1a12,12,0,0,1-1.55,4.51c-.51,1-1,2.07-1.51,3.11l0,0Z"/><path class="cls-1" d="M269.65,140.93l-1.52-4.47c1.29,1.2,1.42,2.83,1.52,4.47Z"/><path class="cls-1" d="M262.74,142l-1.53-3.5a3.61,3.61,0,0,1,1.53,3.5Z"/><path class="cls-1" d="M271.53,148.37c-.11-.21-.3-.41-.32-.62a2.39,2.39,0,0,1,.26-1.45v2.12l.06,0Z"/><path class="cls-1" d="M240.57,202.12c-4.32,4.1-9.59,6.18-15.76,7.12a4.75,4.75,0,0,1,2.72-1.46,80.07,80.07,0,0,0,13-5.66Z"/><path class="cls-1" d="M228.1,210.69c.35-.32.64-.8,1-.93a85.81,85.81,0,0,0,14-6.38c.05,0,.15,0,.22.05-2.66,2.79-10,6.24-15.28,7.2l.06.06Z"/><path class="cls-1" d="M225.93,195.74c-5.49,1.78-11.14,2.21-17,2.57.46-1.19,1.29-.95,2-1,4-.36,7.91-.69,11.86-1.06,1.05-.1,2.09-.33,3.14-.5Z"/><path class="cls-1" d="M232,198l11.1-4.32A16,16,0,0,1,232,198Z"/><path class="cls-1" d="M234.53,201.8c-.28,1-.78,1.54-2.27,1.26l2.27-1.26Z"/><path class="cls-1" d="M265.66,179.7c-.54-.11-1.09-.19-1.63-.33a1.51,1.51,0,0,1-1.22-1.85,4.72,4.72,0,0,1,2.58-3.18.9.9,0,0,1,.87.14,1.23,1.23,0,0,1,.09,1.08,21.73,21.73,0,0,1-1.67,1.91l3.95,1.68a8.08,8.08,0,0,1,1-.54,1.81,1.81,0,0,1,2.82,1.35,3.06,3.06,0,0,1,.09.74c0,.75,0,1.49,0,2.37-1.24-.25-.85-1.56-1.78-2.17-.11.06-.36.19-.59.34-2,1.29-2.81,1.14-4.09-.79-.18-.27-.34-.55-.51-.83l.09.08Z"/><path class="cls-1" d="M255.05,184.7a6.93,6.93,0,0,1,2.33-3.3c.49,2-.18,3-2.33,3.3Z"/><path class="cls-1" d="M281.77,108.25c.22.19.62.35.64.56a7.86,7.86,0,0,1-.1,2.21l-.54-2.78Z"/><path class="cls-1" d="M281.77,108.24l-.15-2.59.39,0-.24,2.58Z"/><path class="cls-1" d="M257.28,206.29q2-4.64,3.92-9.25a19.67,19.67,0,0,1-3.92,9.25Z"/><path class="cls-1" d="M259,198.11a2.42,2.42,0,0,1-1.16,2.76c-.32-1.31.41-1.91,1.16-2.76Z"/><path class="cls-1" d="M254.16,201.23c.33-.61.67-1.22,1.12-2-.1,1.15-.1,1.15-1.12,2Z"/><path class="cls-1" d="M252.28,203.63c.19-.26.36-.53.57-.77a.67.67,0,0,1,.66-.18,7.09,7.09,0,0,1-.49.69,5.23,5.23,0,0,1-.56.48l-.18-.22Z"/></svg>