<svg id="Capa_1" data-name="Capa 1" xmlns="http://www.w3.org/2000/svg" viewBox="0 0 500 300"><defs><style>.cls-1{fill:#fff;}</style></defs><title>Mesa de trabajo 2</title><path class="cls-1" d="M202.72,91.85a2.91,2.91,0,0,1,2.41-.27c3.43,1.17,5.55,4.15,8,6.83l.6.65,3.58,2.62c5.23,7.76,18.61,8.86,26,11.49,7.06,2.51,14.75,5.32,20.73,10.13,5.81,4.66,9.69,11.83,12.49,19.06,6.13,15.88,4.38,33.71-1.83,50.15a145.33,145.33,0,0,1-10.48,21.59c-3.67,6.35-8.34,12.38-11.79,18.92a68.76,68.76,0,0,0-11.22-9.51l-.12-.24-.48-.21a2.29,2.29,0,0,1-.27-.14,0,0,0,0,0,0,0l-.1-.06a3.87,3.87,0,0,1-.34-.21c-1.17-.76-2.37-1.49-3.59-2.18l-.05,0a54,54,0,0,1,3-6.66,1.15,1.15,0,0,0,.06.17c.08-.21.16-.42.25-.63l0-.08c.08-.16.17-.31.26-.47,4.5-10.79,11.38-20.88,12.9-32.58s-3.25-22.47-7.73-32.34c-5.18-11.45-13.17-17.8-22.68-24.51a39.9,39.9,0,0,1-3.58-2.88l-.19-.14c-.2-.15-.4-.3-.59-.46a28.65,28.65,0,0,1-13.22-10.46C202,105.43,199,99.21,201,94a4.35,4.35,0,0,1,.7-1.2c0-.53-.1-1.07-.12-1.62.4.23.78.48,1.18.72Zm34.86,133.51,1.12.64c-.08.5-.17,1.06-.25,1.65a20.83,20.83,0,0,1-.87-2.29Zm3.36,2c.92.59,1.81,1.2,2.69,1.84a12.74,12.74,0,0,0-2.46,4.6c-.63-1.46-.33-4.23-.23-6.44Zm.94,7.3a27.16,27.16,0,0,1,1.42-2.38,25.28,25.28,0,0,0,1.46-2.24,65.77,65.77,0,0,1,5.34,4.44,24.9,24.9,0,0,1-5.45.8,3,3,0,0,0,.78-.74c.35-.47.86-1.42.43-2a.52.52,0,0,0-.62-.21c-.46.17-.65.78-.91,1.19a4.24,4.24,0,0,1-.91,1,.63.63,0,0,0-.26.55,3.42,3.42,0,0,1-1.28-.48ZM200.21,90.12a34.23,34.23,0,0,0-.61,9.48c.54,4.3,3,8.11,5.24,11.45,4.41,6.56,10.31,10.68,16.77,14.56,5.39,3.23,11.07,6.17,15.43,11a44.65,44.65,0,0,1,7.68,12.69,49.46,49.46,0,0,1,3.68,9.54c1.77,4.59,3.45,9.31,3.13,14.45-.33,5.4-2.05,10.83-4.08,16a64.51,64.51,0,0,1-3.77,9.07c-2.62,6-5.61,11.77-7.85,18a44.25,44.25,0,0,1-2.24,5.61,2.35,2.35,0,0,0,.25.19,15.49,15.49,0,0,0,.68,6.58c1.1,3.1,2.3,4.23.34,7.64a42,42,0,0,0-5.32,16.64c-.83,8.18.32,22.74,9.75,23.48a1.4,1.4,0,0,0,.55-2.71c-9.9-2.93-7.34-22.16-4.28-30.16.87-2.26,2.67-4.69,3.71-7.16a3.06,3.06,0,0,0,.7.69c2.51,1.73,7.33.66,10.86-.26a.88.88,0,0,0,.36.4c7.58-10.51,13.8-22.13,20.21-33.46a101.16,101.16,0,0,0,9.8-24.34c.37-4.1,1.17-8.15,1.71-12.29,1-7.68-.63-14.43-2.7-21.49-3.61-12.33-9.82-22.52-20.28-28.74a68,68,0,0,0-12.31-5.59c-9.18-1.14-19.16-.84-26.53-7.14-6-5.13-12.49-13.9-20.88-14.16Z"/><path class="cls-1" d="M258.51,216.39a87.66,87.66,0,0,1-5.78,10.17c-.17.28-.56,0-.42-.29a52.92,52.92,0,0,1,6-10,.14.14,0,0,1,.23.15Z"/><path class="cls-1" d="M269.32,193a132,132,0,0,1-7.42,15.84s0,0,0,0c2.62-5.2,5.11-10.48,7.38-15.86,0,0,.09,0,.07,0Z"/><path class="cls-1" d="M274.27,158.09c3.08,6.8,1.12,14.45-.81,21.67a.05.05,0,1,1-.1,0c1.74-7.47,2.74-14.26.62-21.49-.05-.18.21-.34.29-.16Z"/><path class="cls-1" d="M278.53,162.93a58.41,58.41,0,0,1-6.92,30.24.16.16,0,1,1-.28-.14,67.72,67.72,0,0,0,7.1-30.09c0-.07.1-.08.1,0Z"/><path class="cls-1" d="M258.46,219a27.17,27.17,0,0,1-5.88,10.62c-.16.16-.36,0-.24-.22a110.5,110.5,0,0,0,5.84-10.49c.08-.16.34-.09.28.09Z"/><path class="cls-1" d="M276.7,153.19c1.36,2.78,1.43,6.18,1.12,9.36-.05.47-.79.45-.75,0a38.93,38.93,0,0,0-.76-9.17c0-.22.3-.35.39-.16Z"/><path class="cls-1" d="M270.2,199.9c-2.43,5.78-6.26,11.13-9.79,16.2-.21.29-.56,0-.37-.35,3.33-5.3,6.15-11,9.64-16.21.23-.34.67,0,.52.36Z"/><path class="cls-1" d="M201.25,91.07a.33.33,0,0,1,.13,0c3.78-.34,6.68,1.75,9.24,4.41,3.48,3.59,6.91,6.77,11.28,9.06,8,4.22,16.91,5.43,25.62,7.56.45.11.23.92-.22.87-8.23-.83-16.79-2.67-24.28-6.19a38,38,0,0,1-9.78-6.47c-3.44-3.19-6.55-8.18-11.71-7.77a.69.69,0,0,1-.39-.1c-2.69,24.47,24.72,30.51,37.75,42.58,6,5.52,8.58,15.07,10.93,23.11s4.18,17,1.85,25.53c-.14.5-.74.25-.73-.18a79.65,79.65,0,0,0-5.12-30.72c-1.66-4.61-3.16-9.86-6.09-13.62-3.23-4.15-8.06-6.89-12.34-9.55-12.92-8-31.48-18-27.63-38.38a.75.75,0,0,1,1.49-.1Z"/><path class="cls-1" d="M243.51,135.82a83.35,83.35,0,0,1,7.35,15.52,70,70,0,0,1,4.27,17c0,.08-.11.13-.13.05-1.35-5.59-2.44-11.16-4.36-16.53a96.9,96.9,0,0,0-7.43-15.78c-.12-.21.17-.48.3-.27Z"/><path class="cls-1" d="M254.21,169.43c1.88,7-.24,15-3,21.73-3.54,8.74-8.66,16.73-11.3,25.85a.18.18,0,0,1-.35-.08c3.91-16.34,16.56-29.82,14.08-47.31,0-.34.46-.53.55-.19Z"/><path class="cls-1" d="M257.65,154.61c4,9.09,3.49,22.66-1.5,31.87-.08.15-.27,0-.23-.13,1.65-5.14,3.12-10.12,3.4-15.52a52,52,0,0,0-2-16c-.07-.27.26-.44.37-.19Z"/><path class="cls-1" d="M258.6,150.89c2.49,4.69,3.22,10.87,3.25,16.37,0,.31-.43.41-.44.09-.2-5.81-1.69-10.86-3.15-16.29-.07-.25.23-.39.34-.17Z"/><path class="cls-1" d="M261.41,151.29c1.23,1.51,1.51,4.26,1.63,6.26,0,.36-.47.45-.51.1a18.3,18.3,0,0,0-.65-3.39c-.28-.92-.73-1.79-.92-2.74a.26.26,0,0,1,.45-.23Z"/><path class="cls-1" d="M239.24,218.75a56.3,56.3,0,0,1,2.76,5c.13.23-.18.52-.31.29-.92-1.68-2-3.33-2.72-5.1-.07-.18.17-.34.27-.19Z"/><path class="cls-1" d="M239.88,216.28c1.58,2.77,3,5.72,4.5,8.54.08.16-.12.35-.22.2a37.46,37.46,0,0,1-4.58-8.54c-.06-.18.2-.38.3-.2Z"/><path class="cls-1" d="M240.49,213.11c2.06,3.73,3.91,7.63,5.94,11.38.09.16-.11.35-.21.2a62.14,62.14,0,0,1-6-11.39c-.07-.17.18-.36.28-.19Z"/><path class="cls-1" d="M241.65,210c1.94,3.75,3.66,7.59,5.86,11.17.09.16-.12.35-.22.2a51.7,51.7,0,0,1-5.81-11.29.09.09,0,0,1,.17-.08Z"/><path class="cls-1" d="M243.51,207.63c1.22,2.37,2.24,4.91,3.35,7.36.07.16-.17.28-.24.12-1.12-2.44-2.35-4.85-3.34-7.36a.13.13,0,0,1,.23-.12Z"/><path class="cls-1" d="M244.87,205.25c1.54,2.76,2.82,5.73,4.2,8.59.1.19-.2.34-.3.15-1.39-2.83-2.93-5.62-4.17-8.55-.06-.17.18-.34.27-.19Z"/><path class="cls-1" d="M246,202c1.63,2.78,2.8,6,4.27,8.88.08.15-.17.33-.25.17a50.15,50.15,0,0,1-4.24-8.9c0-.13.14-.28.22-.15Z"/><path class="cls-1" d="M246.55,199.21c1.93,2.53,3.27,5.85,4.81,8.7.12.23-.19.51-.32.28-1.57-2.85-3.59-5.69-4.74-8.8-.06-.17.15-.31.25-.18Z"/><path class="cls-1" d="M248.1,197.67a33.39,33.39,0,0,1,4,7.05c.11.23-.24.41-.34.18-1.15-2.47-2.58-4.67-3.9-7-.1-.18.11-.38.24-.22Z"/><path class="cls-1" d="M250.06,195.94c.61.92,1.1,2,1.63,2.95.16.29,1.82,3.53,2.24,2.88.07-.11.19-.05.21,0a0,0,0,0,1,0,.07l-.09.22a0,0,0,1,1-.08,0h0c-.54.66-1.15-.32-1.43-.82a52.72,52.72,0,0,1-2.76-5.14c-.07-.16.15-.31.25-.17Z"/><path class="cls-1" d="M250.94,193.12c1.38,1.82,2.5,3.93,3.71,5.9.13.23-.18.52-.32.29a70.08,70.08,0,0,1-3.66-6c-.08-.17.16-.32.27-.19Z"/><path class="cls-1" d="M251.84,189.43a70.93,70.93,0,0,1,3.55,6.19c.11.18-.15.42-.26.23-1.2-2-2.56-4-3.57-6.22-.08-.18.18-.35.28-.2Z"/><path class="cls-1" d="M252.38,186.12a49.44,49.44,0,0,1,4.92,8.18.17.17,0,0,1-.3.15c-1.46-2.83-3.16-5.47-4.77-8.19-.07-.11.07-.24.15-.14Z"/><path class="cls-1" d="M253,182.82a77.83,77.83,0,0,0,3.94,7.39c.09.13-.1.3-.19.17a38.23,38.23,0,0,1-3.93-7.47.1.1,0,0,1,.18-.09Z"/><path class="cls-1" d="M252.7,178.62c2.14,3.11,4,6.49,6,9.75.09.14-.11.33-.21.18-2-3.23-4.14-6.4-6-9.76-.08-.14.1-.31.19-.17Z"/><path class="cls-1" d="M253.24,176a61.11,61.11,0,0,1,6.4,9.36c.09.14-.12.33-.21.18-2-3.27-4.22-6.25-6.44-9.32-.12-.17.12-.38.25-.22Z"/><path class="cls-1" d="M260.51,182.61c.09.21-.22.36-.31.16-2.06-4.27-4.85-7.36-8-10.59-.19-.19,0-.53.25-.37,3.57,2.49,6.23,6.66,8.07,10.8Z"/><path class="cls-1" d="M260.25,175.87c.14.15-.1.36-.24.22a123.87,123.87,0,0,0-9.75-8.89c-.09-.07,0-.21.1-.15a57.69,57.69,0,0,1,9.89,8.82Z"/><path class="cls-1" d="M262.08,173.69c.13.14,0,.4-.18.27-4.33-3.81-8.85-7.44-13.11-11.33-.15-.14,0-.41.2-.29a86.79,86.79,0,0,1,13.09,11.35Z"/><path class="cls-1" d="M261.68,170.28c.13.17-.12.47-.27.31a76.33,76.33,0,0,0-12.68-10.22c-.16-.11,0-.42.18-.34a37.83,37.83,0,0,1,12.77,10.25Z"/><path class="cls-1" d="M263.16,167.26c.13.18-.12.41-.26.24-3.93-5-9.1-7.89-14.22-11.25-.15-.1,0-.39.16-.31,5.3,2.8,10.59,6.32,14.32,11.32Z"/><path class="cls-1" d="M261.58,161.87c.13.12,0,.36-.17.25a162.93,162.93,0,0,0-13.4-9.47c-.13-.09,0-.35.14-.28a69.26,69.26,0,0,1,13.43,9.5Z"/><path class="cls-1" d="M262.11,160.44c.14.19-.14.45-.29.26-4-5.26-10.19-7.49-15.54-10.77-.21-.14,0-.55.23-.44,5.5,2.73,11.76,5.75,15.6,10.95Z"/><path class="cls-1" d="M249.89,229.73c.19.07.06.41-.13.34a12.7,12.7,0,0,1-4.25-2.53c-.12-.12,0-.35.17-.24a17,17,0,0,0,4.21,2.43Z"/><path class="cls-1" d="M252.91,229.44c.15.07.05.32-.09.26a34.88,34.88,0,0,1-11.58-7.61c-.13-.13,0-.37.17-.25a52.12,52.12,0,0,0,11.5,7.6Z"/></svg>