<svg id="Capa_1" data-name="Capa 1" xmlns="http://www.w3.org/2000/svg" viewBox="0 0 500 300"><defs><style>.cls-1{fill:#fff;}</style></defs><title>Mesa de trabajo 3</title><path class="cls-1" d="M276.43,201.75c2.14-.42,3.83-.84,5.55-1.07a3.51,3.51,0,0,0,3.1-2.74c.17-.81-.79-2.09-1.56-2.82a5.52,5.52,0,0,0-2.58-.91c-2.14-.46-2.87-1.68-2-3.63a4.61,4.61,0,0,1,1.46-1.56c3.58-2.78,5.57-6.23,4.76-10.92a33.93,33.93,0,0,0-5.35-13.79,144.06,144.06,0,0,0-10.92-13.94c-8-8.89-15.93-17.76-22.82-27.55a124.75,124.75,0,0,0-18.24-20.18c-6.36-5.79-13.5-10.14-22.17-11.56-1.74-.29-3.53-.43-4.63-2.2a2.6,2.6,0,0,0-1.65-.88,44.61,44.61,0,0,0-7.8-1.19,25.19,25.19,0,0,0-7.1,1.26c-3.72,1.13-7.3,2.7-11,3.8a37.36,37.36,0,0,0-9.61,4c-11.1,7-18.17,17.45-24.81,28.31-2.35,3.86-2.88,8.36-4.23,12.57a36,36,0,0,0,.76,24.86,54.43,54.43,0,0,0,21.09,26.27c3.36,2.18,6.68,4.45,10.1,6.55a50.45,50.45,0,0,0,20,7.54c8.79,1.1,17.64,1.8,26.48,2.48a148.28,148.28,0,0,0,16.45.6,206.79,206.79,0,0,1,23.09.48,65.76,65.76,0,0,0,10.11.28c3.71-.28,7.4-1.08,9-5.27.2-.53.75-.93,1.31-1.61l3.19,2.85Zm-24.33,5.93c-1.78,2.28-3.8,2.16-6.23,1.22-3.78-1.45-7.72-.5-11.59-.11a4.21,4.21,0,0,0-.61.16,21.14,21.14,0,0,1-11.19.2c-3-.78-6-.15-9,.27-2.31.31-4.77-.39-7.14-.79-2-.33-3.88-1-5.86-1.28a157.17,157.17,0,0,1-20.84-3.84c-3.87-1-7.9-1.36-11.47-3.31a37.56,37.56,0,0,1-3.7-2.81,22.8,22.8,0,0,0-2.59-1.6c-1.74-.94-3.55-1.78-5.27-2.76-1.09-.62-2-1.6-3.13-2.12a10.83,10.83,0,0,1-3.94-3.49c-1.91-2.46-4.28-4.54-6.37-6.85a21.62,21.62,0,0,1-3.26-4.23,11.91,11.91,0,0,0-4.45-4.8c-2-1.23-3-3.25-3.76-5.32s-1.5-4.38-2.25-6.57a9.42,9.42,0,0,1-.54-1.48c-1.06-7.21-3.39-14.35-.46-21.71a15.05,15.05,0,0,0,.71-6.52,12.89,12.89,0,0,1,5.51-12.07c1.39-1,2.62-1.86,2.63-3.91a4.24,4.24,0,0,1,2.61-3.73,4,4,0,0,0,2.26-2.81,5,5,0,0,1,3.8-3.84c.84-.2,1.63-1.24,2.14-2.08a9.08,9.08,0,0,1,3.35-3.22,21.32,21.32,0,0,0,4.34-3.6,7.6,7.6,0,0,1,4-2.41,9.59,9.59,0,0,0,3.15-1.37,30.51,30.51,0,0,1,10.54-4.14A87.43,87.43,0,0,0,182,84.47c6.12-1.84,12.12-.93,18.08.74a3.41,3.41,0,0,1,1.67.85c1.7,2.07,4.05,2.22,6.44,2.58,6,.91,11.13,3.88,16.09,7.15,2.73,1.8,5.42,3.67,8.08,5.58a34.27,34.27,0,0,1,3.14,2.64c2.19,2,4.45,3.91,6.49,6,3.65,3.8,7.36,7.58,10.65,11.68,1.68,2.08,2.48,4.87,3.75,7.29a19.53,19.53,0,0,0,2.2,3.44q5.94,7,12,13.9a20,20,0,0,0,3.26,3c7.28,5.3,10.45,13,12.64,21.31.51,1.93.6,4,1.12,5.91,1.29,4.82-.2,8.95-3,12.79-.43.59-.89,1.17-1.39,1.84a30.17,30.17,0,0,1,2.8,2.41c1.24,1.34,2.52,3,1.54,4.8a6,6,0,0,1-4.88,3.58c-1.67.11-3.32-.17-4.65,1.33-.31.35-1.42.25-2,0a11.71,11.71,0,0,1-2.23-1.41c-1.81,5-6.16,5.86-10.64,6.46-1,.14-2.23-.2-3.13.19a7.73,7.73,0,0,1-7.88-.9Z"/><path class="cls-1" d="M214.33,171.72c2.89-.92,5.42-.14,8,.39a4.67,4.67,0,0,0,2.26.17c2.58-.91,5.09-2,7.94-3.13a4,4,0,0,1-2.55,3c-1.53.71-3.11,1.31-4.63,2a43.82,43.82,0,0,1-3.89,2.05c-2.65.94-5.38,1.71-8.09,2.46-.8.22-1.71,0-2.51.24-5.63,1.4-11.07.5-16.49-1.12-2.93-.87-5.83-1.84-8.8-2.55-7.07-1.7-12.55-5.84-17.44-11a18,18,0,0,1-4.29-8c-2.3-8.74-1.82-17.24,3.2-25a17.57,17.57,0,0,1,11.57-7.89c0,1.49-.86,1.87-1.57,2.4-3.58,2.67-6.88,5.58-8.86,9.73a29.92,29.92,0,0,0-2.84,11.92c0,.7-.44,1.87,1.09,1.61.08,0,.25.29.31.47q1.59,4.62,3.14,9.23c0,.05-.1.13-.3.37-1.63-1-2.1-2.92-3.37-4.17,2,6.47,5.55,11.67,12.13,14.41L173.41,162l.42-.51a39.31,39.31,0,0,0,21.46,13.85c8.11,2,21.79,1.05,25.81-1.84-2.24-.69-4.69,0-6.77-1.73Z"/><path class="cls-1" d="M179.28,122.76a18.84,18.84,0,0,1,2.12-2.48c7.4-6.26,15.74-7.48,24.54-3.77a53.29,53.29,0,0,1,23.34,19.36c3.19,4.62,6.18,9.32,7.88,14.74a19.88,19.88,0,0,1-2.27,16.74c0-.71-.16-1.12,0-1.41,3.65-8.77,1.46-16.73-3.27-24.38a60.14,60.14,0,0,0-21.27-20.81c-8.27-4.81-16.45-4.51-24.81-.6-2,.93-3.88,2-5.81,3l-.42-.41Z"/><path class="cls-1" d="M146.87,166.91a20.78,20.78,0,0,1-2.84-2.6c-3.92-5.16-6.09-10.74-4.39-17.39.8-3.15,1.1-6.43,1.66-9.64a11,11,0,0,1,1.25-3.67,13.5,13.5,0,0,1,0,1.8c-.71,4.58-1.49,9.14-2.16,13.72-.48,3.24.48,6.32,1.78,9.19a58.61,58.61,0,0,0,4.07,6.72c.32.51.7,1,1.06,1.48l-.41.39Z"/><path class="cls-1" d="M157.86,111.43c-2.39,1.86-4.64,3.2-6.33,5a27,27,0,0,0-4.32,6.53,58.74,58.74,0,0,0-2.49,7.3c-2.21-6.85,5-17.73,13.14-18.88Z"/><path class="cls-1" d="M165.36,99.1c6.84-4.15,16.42-4.35,26-7.59-7.48,4.2-16,5.57-26,7.59Z"/><path class="cls-1" d="M250.69,134.47l20.6,23.31c-10.54-9.52-14.94-14.51-20.6-23.31Z"/><path class="cls-1" d="M176.48,136.88c0,5-1.3,9.85,2.93,13.93-4.82-.84-6.19-8.21-2.93-13.93Z"/><path class="cls-1" d="M172.42,141.09c-1.54-5.33,3.21-11.84,8.37-12.75-4.82,3.45-7.7,7.39-8.37,12.75Z"/><path class="cls-1" d="M228.88,141.13c1.22,2.55,3.69,4.38,4.25,7.58-2.29-2.28-4.9-4-4.25-7.58Z"/><path class="cls-1" d="M222.21,132c-1.68-1.47-3.35-2.94-5.34-4.67,2.82.52,4,1.48,5.34,4.67Z"/><path class="cls-1" d="M185.85,122.18l7.2-3.61.17.33-7.07,3.79-.3-.51Z"/><path class="cls-1" d="M168.53,148.54c-.17-1.92-.33-3.84-.5-5.76l.56-.07q.41,2.86.79,5.73l-.85.1Z"/><path class="cls-1" d="M183.3,126l3.72-1.26c.07.21.15.41.22.62l-3.59,1.43c-.11-.26-.23-.53-.35-.79Z"/><path class="cls-1" d="M249.3,138.2q-1.28-2.2-2.56-4.41l.55-.33,2.56,4.38-.55.36Z"/><path class="cls-1" d="M164.34,104a4.39,4.39,0,0,1,4.55-1.82c-1.7.67-2.94,1.17-4.55,1.82Z"/></svg>