<svg id="Capa_1" data-name="Capa 1" xmlns="http://www.w3.org/2000/svg" viewBox="0 0 500 300"><defs><style>.cls-1{fill:#fff;}</style></defs><title>Mesa de trabajo 4</title><path class="cls-1" d="M163,153.13c-1.23.26-21-9.19-15.51.7,5,5.16,9.74,15.71,15.51-.7Zm77.19-8.89c2.59,4.1,2.54,18,14.4,8.39,3.68-7.27-7.22-12.46-14.4-8.39Zm-47.07,21c4.58,15.84,27.64,2.31,10-6.65-3,2.06-5.91,3.48-10,6.65Zm61.41-9.57c8.76-1.94,63.78-43.46,34.06-39.94-13.17,10.9-27.61,18.65-44.92,25,6.49.4,16.69,6,10.86,15Zm-35.2-4.55c26.87.61,1.55,35.68-4.66,2l-9.85,5.15c16.41,7.75-4.18,24.85-14,8.49l-9.5,8.92c23.26,7.08,46.85-6.54,68.68-17.21-12-1.34-6.44-7.28-12.18-13.71-5.06,1.71-11.45,3.83-18.45,6.43l-1.88.27c-.55,28.75,29.15,4.24,1.35.3.09-.14.27-.39.45-.64ZM156.74,209.5c-11.83-1-9.77-33-.78-43.28-2.47-2.58-20-18.6-4.9-17.64,19.13,6.37,18.77-1.45,32.23-11.83,32-15.16,65.53-37.47,102.53-23.15-18.74,11.63-40.78,17-58.76,32,20.9-5.77,41.14-19.32,61.53-31,47.32-1.07-80.06,83.32-108.82,62.85-9,8.24-10,25.48-23,32C173.21,192.87,171.67,175,195,161.71l.14.2c27.44-17.31,56.13-34.57,87-48.55-36.07-10.53-54.92,5.74-80.51,17.07l.2.48,3.74-.44c-29.35,4.9-73.16,48.68-48.86,79Z"/></svg>