<svg id="Capa_1" data-name="Capa 1" xmlns="http://www.w3.org/2000/svg" viewBox="0 0 500 300"><defs><style>.cls-1{fill:#fff;}</style></defs><title>Mesa de trabajo 5</title><path class="cls-1" d="M308.8,153.16l.46.22.59-1.28-.31-.17c-.25.41-.5.82-.74,1.23Zm1.35-4.34c1-1.38.25-2.26-.31-3.26-.45,1.1-.45,1.1.31,3.26Zm-7.65,6.46c-2.88.88-5.41,1.72-7.58,3.5,2.93,1.77,5.26.73,7.58-3.5Zm-41.27-29.51c2.64-1.89,5-3.53,7.91-4s5.55-.66,8.51-1c-4.44-4.24-15.52-.54-16.42,5Zm4.46-6.9c4.55-1.59,8.66-.86,12.63.37l1.57-2.27c-6.53-3.89-11.63-3.37-14.2,1.9Zm24.09,6.44c0,.21,0,.42-.08.63-1.24.2-2.47.44-3.71.57a2.42,2.42,0,0,0-2.27,2.09,5.92,5.92,0,0,0,2,6.46c.81.68,1.61,1.38,2.72,2.32-1.36.23-2.22.36-3.06.52-2.23.42-2.66,1.44-1.29,3.27a7.43,7.43,0,0,0,1.81,1.52,14.11,14.11,0,0,0,1.61.87,7.8,7.8,0,0,1,.15.82c0,3.3,1,4.56,4,5.63a13.8,13.8,0,0,0,6.87.31c2.68-.43,5.1-.11,6.81,2.11,2.91.13,3.45-1.53,3.23-3.19a4.37,4.37,0,0,0-1-2.25,3.52,3.52,0,0,1-.73-4.37c.45-.93.9-1.85,1.39-2.84a14.81,14.81,0,0,0-1.56-1.52c-2.72-2-4.13-4.4-3.16-7.83.08-.3,0-.64.08-1a4.86,4.86,0,0,0-1.58-4.33,12.38,12.38,0,0,0-2.22-1.81c-3.2-1.93-6.42-3.83-9.68-5.66a4.89,4.89,0,0,0-3.41-.72c.55,1.92.45,2.11-1.17,2.22-.92.06-1.91-.14-2.84,1.09,2,.26,3.81.39,5.55.75s3.58,1,5.37,1.48c-3.19,1.11-5.92-.74-9-1,1,2.44,2.87,3.43,5.19,3.84Zm-8.45,5.24-.05.07c.25-2.15.61-4.26,2.6-5.87-1.15-.38-2-.72-2.95-1-3.75-1.07-7.51-.55-11.16.29-6.25,1.43-10.59,5.35-13.21,11.15-.63,1.41-1,3.16.18,4.31s1.47,2.69,1.76,4.27a4.82,4.82,0,0,0,3.57,4.25c-.78,2.68.1,5,1.78,7.08a23.62,23.62,0,0,0,9.92,6.91,6.52,6.52,0,0,0,2.82.46,25.28,25.28,0,0,0,6.35-1c3.21-1.18,6.24-2.83,9.34-4.29,2.38-1.12,4.69-2.4,7.15-3.31a21.4,21.4,0,0,1,4.68-.61,4.09,4.09,0,0,0-3.92-1.7c-1.36,0-2.71.27-4.06.4a11.9,11.9,0,0,1-6.31-1,5.39,5.39,0,0,1-3.51-5.23c0-.53,0-1.06,0-1.31-1.33-.8-2.8-1.2-3.41-2.16-1-1.55-2.53-2.35-3.73-3.57a2,2,0,0,0-3.41.38,14,14,0,0,0-.63,1.29c-.69,1.23-1,1.34-2.3.74-.43-.2-.82-.51-1.26-.68a5.51,5.51,0,0,0-5.43.66,3.74,3.74,0,0,0-1.53,4.19c.12.68.26,1.46-.76,1.66-.24-.94-.47-1.84-.72-2.73a4.87,4.87,0,0,1,1.58-5.4c2.1-1.8,4.42-2.25,6.41-1.19.7.37,1.35.83,2.14,1.32a17,17,0,0,1,.73-1.85c1.09-2,3.62-2.86,5.32-1.45,1.86,1.52,3.65.79,6,.79a7.82,7.82,0,0,1-4-5.89Zm-21.14-3.48c-1.05-3.16.73-5,2.77-6.68a4,4,0,0,0,1.89-2.55,4.74,4.74,0,0,1,1.64-2.28,10,10,0,0,1,9.87-2.1,53.64,53.64,0,0,1,6.42,2.61,3.77,3.77,0,0,0,3.33.26,6,6,0,0,1,5.49.84,18.37,18.37,0,0,0,6.15,2.54,12.76,12.76,0,0,1,8.48,6.16,4.77,4.77,0,0,1,.61,3.91,4.51,4.51,0,0,0,1.48,5.17c.85.71,1.61,1.54,2.45,2.27a3.47,3.47,0,0,1,1.42,3.38,8.59,8.59,0,0,0,.48,4.69,3.64,3.64,0,0,1-.66,3.81,2.34,2.34,0,0,0-.61,2.17,4.22,4.22,0,0,1-.18,2.11c-.58,1.57-1.79,1.83-4.21.93-1,1-2,2.08-3.1,3.12-.57.55-1.2,1-1.83,1.55-2.83,2.26-5.81,3-8.93.69-2.63,1.22-5.1,2.56-7.71,3.53a29.21,29.21,0,0,1-6.92,1.77c-6.29.69-11.11-2.46-15.22-6.71a10.66,10.66,0,0,1-2.83-9.09c-.72-.68-1.44-1.31-2.1-2a5.43,5.43,0,0,1-1.67-4.33,2.44,2.44,0,0,0-.43-1.71c-2.35-2.25-2-4.8-1.1-7.53a14.59,14.59,0,0,1,5-6.53Z"/><path class="cls-1" d="M262.13,132.82c1.65-3.55,10.8-7.33,15.28-6.32-5.58,1.17-10.81,2.36-15.28,6.32Z"/><path class="cls-1" d="M287.52,157c-2.93,3.16-6.75,3.54-10.72,3.42,3.88-.19,7.29-1.81,10.72-3.42Z"/><path class="cls-1" d="M274.34,159.39c-3.36-.16-5-1.18-7.23-4.43a40,40,0,0,0,3.21,2.45c1.13.7,2.39,1.19,4,2Z"/><path class="cls-1" d="M277,128.06c-1.78,1.32-4,.9-6,1.5,1.64-1.75,3.81-1.58,6-1.5Z"/><path class="cls-1" d="M281.33,130.55l-6.26,1.13c2.14-2,4.29-2.32,6.2-1.06,0,0,.06-.07.06-.07Z"/><path class="cls-1" d="M268.6,151.54l4.82,1.24c-1.8.52-2.69.32-4.82-1.24Z"/><path class="cls-1" d="M280.23,133.45l-3.14,1c1.19-1.48,1.23-1.49,3.14-1Z"/><path class="cls-1" d="M267,133.82l-2.89,1.7-.26-.44,2.85-1.75.3.49Z"/><path class="cls-1" d="M278.55,124.49l-3.25-.15c0-.11,0-.23,0-.34l3.28.18c0,.11,0,.21,0,.31Z"/><path class="cls-1" d="M285.41,155.29l-2.53,1.86-.29-.39,2.46-1.8.36.33Z"/><path class="cls-1" d="M273.83,157.61,272,157c.05-.16.1-.31.16-.46l1.82.7c-.05.12-.09.25-.14.38Z"/><path class="cls-1" d="M303.84,138.92c.41,1.25-.44,2-1.37,2.56a5.69,5.69,0,0,1-7.34-1.24c-.73-.84-1.44-1.7-2.18-2.53a12.22,12.22,0,0,0-.95-.84l-1.06.82L289.87,136c.25-.22.42-.49.59-.49a8.11,8.11,0,0,1,5.39,2.27c2.25,2.09,4.5,2.47,7.15,1a1,1,0,0,1,.47-.06c.07,0,.14.06.37.17Z"/><path class="cls-1" d="M301.56,144.35c-1.89,2.2-2.93,2.45-6.16,1.4l6.16-1.4Z"/><path class="cls-1" d="M288.53,129.08a5.05,5.05,0,0,1,5.59-1.5l-5.59,1.5Z"/><path class="cls-1" d="M290.07,145.86l4.21,1.91c-1.52-.11-3.27.31-4.21-1.91Z"/><path class="cls-1" d="M294.76,124.51l1.87.59c0,.14-.07.29-.11.44l-2-.5c.09-.17.18-.35.26-.53Z"/><path class="cls-1" d="M203.13,173a70.78,70.78,0,0,1-7.92,8.67c-.13.11-.37,0-.25-.2,2.26-3,4.94-5.61,7.36-8.44s4.91-6.09,7.46-9c.08-.09.24,0,.17.13a97.85,97.85,0,0,1-6.82,8.89Z"/><path class="cls-1" d="M210.64,149.75c.09-.12.3,0,.21.12-6.39,9.06-11.47,18.74-16.3,28.68-.05.1-.23,0-.19-.08,4.06-10.21,9.91-19.8,16.28-28.72Z"/><path class="cls-1" d="M221.38,145.15l.45-.65a.12.12,0,0,1,.21.13c-2.06,3.55-4.48,6.93-6.86,10.27-.05.08-.18,0-.12-.07,1.17-1.82,2.33-3.64,3.51-5.45.56-.86,1.13-1.72,1.7-2.58.28-.42.53-.9.85-1.29l.27-.29a0,0,0,0,1,0-.07Z"/><path class="cls-1" d="M224,145.1a.06.06,0,0,1,.09-.08c3.47,2.79,2.66,8.81,2.14,12.66a37.12,37.12,0,0,1-4,13.06c-.08.14-.34,0-.28-.11a57.39,57.39,0,0,0,3.65-11.71c.78-4.57,1.43-9.93-1.57-13.82Z"/><path class="cls-1" d="M222.42,171.34a14.66,14.66,0,0,0,2.63-4.79c.48-1.53.67-3.13,1.17-4.66,0-.07.14-.06.13,0a17.21,17.21,0,0,1-3.35,9.24,31.41,31.41,0,0,1-9.48,7.69c-.12.07-.21-.11-.1-.18,3.17-2.27,6.53-4.24,9-7.32Z"/><path class="cls-1" d="M220.35,171.86c.09-.11.27,0,.19.14a21.86,21.86,0,0,1-5.77,5.16,30.6,30.6,0,0,1-7.52,3.76c-.09,0-.14-.1-.06-.16,2.13-1.43,4.66-2.35,6.86-3.69a26.56,26.56,0,0,0,6.3-5.21Z"/><path class="cls-1" d="M206.75,179.68c-.12,0-.2-.13-.12-.21a21.42,21.42,0,0,1,4.82-3.18c.09,0,.2.08.11.15a21.72,21.72,0,0,1-4.81,3.24Z"/><path class="cls-1" d="M225.39,155.39a24.54,24.54,0,0,1-3.56,11.47c0,.07-.15,0-.11-.07a43.11,43.11,0,0,0,3.53-11.42.07.07,0,0,1,.14,0Z"/><path class="cls-1" d="M220,169.3a25.33,25.33,0,0,1-4.11,4.72s-.12,0-.08-.07a36.42,36.42,0,0,0,4-4.75c.07-.1.23,0,.16.1Z"/><path class="cls-1" d="M220.59,148.82c.06-.09.22,0,.15.09-2.36,3.4-4.55,6.9-6.84,10.34,0,.08-.15,0-.11-.06,2.07-3.58,4.43-7,6.8-10.37Z"/><path class="cls-1" d="M220.14,153.11c.76-1.37,1.6-2.69,2.41-4a.11.11,0,0,1,.18.11c-.82,1.34-1.6,2.7-2.46,4a.08.08,0,0,1-.13-.08Z"/><path class="cls-1" d="M224.48,148.44a18.25,18.25,0,0,1-1.92,2.37c-.11.1-.29,0-.2-.16a16.84,16.84,0,0,1,2-2.31c.06-.06.18,0,.13.1Z"/><path class="cls-1" d="M215.21,180.87a27.52,27.52,0,0,1-3.22,1.71,8.19,8.19,0,0,0,1.45-.87q.9-.37,1.77-.84Zm-3.75,1.94A28.82,28.82,0,0,1,207,184.3c-.5.12-1,.21-1.5.3a2.74,2.74,0,0,0,1-.9,15.1,15.1,0,0,0,5-.89Zm-6.29.91a6.18,6.18,0,0,1-3.13.11.48.48,0,0,0-.24-.27l1.77.1c.52,0,1.05.05,1.6.06Zm-2.66,1.19.16,0a30.75,30.75,0,0,1-4.29-.07l1.41-.13a25.17,25.17,0,0,1,2.72.18Zm-10-1.83-.72.34a34.07,34.07,0,0,0,2-5.67c.73-2.21,1.51-4.4,2.29-6.6l3.2-9.09a29.54,29.54,0,0,1,2.43-4.4,30.81,30.81,0,0,1,4.31-5,93.54,93.54,0,0,0-6.58,11.92,75.74,75.74,0,0,0-5.24,13.23c0,.13.17.22.22.09,1.91-4.42,3.48-9,5.56-13.33s4.42-8.38,6.74-12.54a41.14,41.14,0,0,1,4-3.12,54.72,54.72,0,0,1,5.34-3.21,182.86,182.86,0,0,0-18.84,29.11l-1,1.46a.17.17,0,0,0,.13.27c-.32.64-.63,1.27-.94,1.91v0l-.13.2c-.9,1.41-2,2.84-2.72,4.35Zm4-6.26.61-1.1,1-1.29-1.57,2.39Zm-4.13,8.92a9.65,9.65,0,0,0-1.08.33c.09-.08.17-.17.26-.26a7.15,7.15,0,0,1,.82-.07Zm27.91-4.2A26.37,26.37,0,0,0,228,168a53.78,53.78,0,0,0,1.33-11.22,26.38,26.38,0,0,0,.1-7.31,13.32,13.32,0,0,0-.83-3.48c-.83-2.09-3.38-4.74-5.85-4a5.37,5.37,0,0,0-.8,0,.39.39,0,0,0,0,.74l.39.08a.26.26,0,0,0,.21.3c3.81,1.1,5.06,4.54,5.38,8.21a32.53,32.53,0,0,1-.07,3.29c-.07.6-.14,1.21-.2,1.82a.43.43,0,0,0,0,.12c-.3,3-.66,6-1.17,8.92a16.43,16.43,0,0,1-2.85,7.43c-.2.24-.39.48-.59.71s-.17.2-.26.29a28.69,28.69,0,0,1-7.54,5.68.14.14,0,0,0-.21-.07c-.22.18-.43.33-.65.49a21.12,21.12,0,0,1-6.71,1.93,31.79,31.79,0,0,1-5.31-.09c.41-.19.81-.46,1.2-.69.12-.07,0-.27-.11-.19a12.83,12.83,0,0,0-1.24.76.07.07,0,0,0,0,.1l-1.49-.09a27.06,27.06,0,0,0,7.19-6.13c.1-.12-.06-.29-.17-.18a51.74,51.74,0,0,1-8.07,6.28,17.57,17.57,0,0,0-1.78,0,45.63,45.63,0,0,0,4.53-3.64,53.92,53.92,0,0,0,5.92-6.26c.1-.12-.07-.31-.18-.18a61.47,61.47,0,0,1-5.91,5.84c-1.82,1.58-3.86,2.88-5.74,4.38l-.54.1a55,55,0,0,0,6.85-6.71c2.25-2.44,4.36-5,6.4-7.59.09-.11-.11-.26-.2-.15-2.13,2.5-4.33,5-6.6,7.32s-4.8,4.55-6.95,7a.24.24,0,0,0,0,.23,8.71,8.71,0,0,0-1,.34c-.23.05-.45.11-.68.18.38-.51.75-1,1.1-1.57a50.83,50.83,0,0,0,5-6c1.53-1.94,3-3.9,4.55-5.86,3.23-4.22,6.36-8.5,9.33-12.9,0-.07-.06-.12-.11-.06-3.15,4.15-6.28,8.32-9.45,12.46q-2.5,3.26-5.05,6.47c-.37.47-.76.93-1.14,1.4.6-.85,1.21-1.69,1.81-2.53,2.43-3.39,4.88-6.76,7.32-10.14s5-6.88,7.61-10.29c1.29-1.7,2.59-3.38,3.88-5.08,1.07-1.42,2.77-3,3.22-4.78a.08.08,0,0,0-.11-.09c-1.69.85-3,3-4.15,4.44-1.31,1.59-2.58,3.2-3.85,4.82-.76,1-1.51,1.92-2.26,2.89q3.62-5.13,7.2-10.26c.13-.19-.16-.35-.29-.18C212,154,205.63,162.7,199.48,171.53a254.27,254.27,0,0,1,17.19-26.14c1.46-.8,2.92-1.59,4.34-2.46.4-.24.15-1-.32-.78a48.16,48.16,0,0,0-11,6.13,36.39,36.39,0,0,0-8.31,7.93c-2.57,3.47-4.08,7.47-5.46,11.52l-2.29,6.72a43,43,0,0,0-2.18,7.09v0c-.11.32-.21.64-.3.95-.93,1.06-1.81,2.17-2.64,3.31a7.93,7.93,0,0,0-1.28,1.4l1,.82a.61.61,0,0,1,.07-.1l.22-.1a2.75,2.75,0,0,0-.22.26l.3.24c3.93-2.3,8-4.41,12.63-2.57.53.21,1.05.44,1.56.66a27.12,27.12,0,0,0,7.55-1.64c5-1.87,10.35-5.47,13.14-10.28a17.55,17.55,0,0,0,1.6-2c-.07.14-.12.28-.19.41a26,26,0,0,1-11.14,11.49,16.07,16.07,0,0,1-7.89,2.36,17.37,17.37,0,0,1-2.89-.3c1.94.86,3.77,1.64,6,1.4,4.23-.89,8.27-3.57,11.33-6.39Z"/></svg>