<svg id="Capa_1" data-name="Capa 1" xmlns="http://www.w3.org/2000/svg" viewBox="0 0 500 300"><defs><style>.cls-1{fill:#fff;}</style></defs><title>Mesa de trabajo 6</title><path class="cls-1" d="M249,164.19c.16.6.3,1.21.42,1.82.52,2.67,1.22,5.3,1.92,7.92a11.49,11.49,0,0,1,.23,6.13c-.63,2.31-1.1,4.66-1.57,7a24.19,24.19,0,0,1-4.75,9.83c-3.75,5-7.47,10-11.21,14.92a19.46,19.46,0,0,1-9,6.91c-2,.7-3.92,1.4-5.92,1.92q-7.31,1.9-14.66,3.62a23,23,0,0,1-17.57-2.47C182,218.89,177,216,172.27,211a71.72,71.72,0,0,1-8.82-11.38l-3.55,1.72c.37.77.76,1.54,1.2,2.3a17.82,17.82,0,0,0,5.25,5.8c2.19,1.57,4.3,3.25,6.44,4.88,3.55,4.05,8,6.85,12.52,9.59a25.32,25.32,0,0,0,19.39,2.9c3.91-.87,7.84-1.62,11.71-2.6,3.56-.89,7.1-1.91,10.57-3.09a14.3,14.3,0,0,0,6.68-4.52q5.51-6.93,10.81-14c2-2.67,3.68-5.63,5.86-8.16a12,12,0,0,0,3.13-6.84,91.61,91.61,0,0,0,0-13.15c-.23-3.33-1.12-6.61-1.68-9.92-.07-.42-.17-.83-.25-1.24l-2.49.91Z"/><path class="cls-1" d="M180.15,209l-.23,0c-2.78-.34-4.82-1.38-5.16-5a15.34,15.34,0,0,0-1.81-5.9,4,4,0,0,1-.59-2.77l-2.64,1.27a4.69,4.69,0,0,0,.45,1.72,26.55,26.55,0,0,1,2.17,7.3c.66,3.29,2.57,5,5.93,5.31a14.93,14.93,0,0,0,3.34-.08c3.43-.43,4.87-2.19,4.94-5.87a.83.83,0,0,0-.2.3c-1.36,4.35-2.25,4-6.2,3.71Z"/><path class="cls-1" d="M193.59,185.05a.5.5,0,0,0,.08.07c-1.35,1.95-6.47,4.22-11.19,5.33l-6.36,3.07h0c6.18.52,11.54-2.1,16.93-4.5a10,10,0,0,0,2.88-2.46,1.8,1.8,0,0,0,.06-2.44.85.85,0,0,0-.19-.14l-2.22,1.07Z"/><path class="cls-1" d="M186.62,204.9c.32-4,2.35-7.23,4.34-10.49,1.37-2.24,2.75-4.53,5.07-6a9.71,9.71,0,0,1,1.66-.94c2.11-.82,4.28.32,4.38,2.58a10.21,10.21,0,0,1-.94,4.83,28,28,0,0,1-3.87,5.43,41.38,41.38,0,0,0-5.74,8.68l1.44-.36c-.18.76-.35,1.44-.53,2.2l-1.08-.21a3.94,3.94,0,0,0-.29.62c-1.1,4.31,4.08,8.24,7.95,7.62a8,8,0,0,0,2.08-.52,7.51,7.51,0,0,1,5.38-.21,34.1,34.1,0,0,0,4.1.65l-1.49-2.17.21-.32a15.35,15.35,0,0,1,1.86,1c.37.29,2-.55.95,1,3.93.37,7.05-3.77,5.5-7.2a6.45,6.45,0,0,0-.66-1.28c-3-4-4.54-8.78-6.56-13.29a9.59,9.59,0,0,1-.65-3.24c-.06-.91.34-1.7,1.74-1.87-.56,2.16.43,3.84,1.24,5.6s1.38,3.58,2.15,5.33c.83,1.9,1.76,3.75,2.66,5.61a5.63,5.63,0,0,0,.37.62c2.64,4.28,2.06,7.35-2.06,10.3a5,5,0,0,1-2.65.93,35.27,35.27,0,0,1-6.66-.39,7.89,7.89,0,0,0-5.09.45,8.61,8.61,0,0,1-9.29-.89c-3.89-2.79-5-7.07-2.79-11.71a31.72,31.72,0,0,1,5.8-8.47,28.9,28.9,0,0,0,3.49-4.25,10.41,10.41,0,0,0,1.42-3.75c.29-1.63-.86-2.51-2.33-1.82a10.92,10.92,0,0,0-3.09,2.21,31.18,31.18,0,0,0-7.1,11.54,22.13,22.13,0,0,1-1,2.1Z"/><path class="cls-1" d="M242.94,186.89c0-1,.05-2,.07-2.89,1.49,1.06,1.62,1.71,1,5.31l1.11,1c-.33.19-.65.41-1,.58s-.73.15-.94.37c-.94,1-1.81,2-2.72,3a4.62,4.62,0,0,0-1.09,3.8c.62,5.4-2.17,9.35-5.63,12.91a7,7,0,0,1-7.07,1.91,14.49,14.49,0,0,1-10.43-9.38,36.14,36.14,0,0,1-2.1-7.93c.28.44.59.86.84,1.31,1.59,2.77,3.12,5.56,4.75,8.3a13.63,13.63,0,0,0,6.43,5.18,5.89,5.89,0,0,0,7.07-1.11c3.28-3.15,5.67-6.72,5.41-11.52a7.19,7.19,0,0,1,2.27-5.36,7.05,7.05,0,0,0,2.06-5.61v.11Z"/><path class="cls-1" d="M245.45,165.5a9.32,9.32,0,0,1,1,2.11,16.4,16.4,0,0,1-.17,9.66,8.15,8.15,0,0,1-1.79,2.46c-.47.57-1,1.06-1.68,1.72a5,5,0,0,0,5.32-3.72,20.47,20.47,0,0,0,.71-9.46,9.64,9.64,0,0,0-1.28-3.54l-2.13.77Z"/><path class="cls-1" d="M210.62,183.35c2.76.66,5.55,1.3,8.32,2a10.91,10.91,0,0,1,5.66,2.91c.57.6,1.09,1.22.73,2.11a1.86,1.86,0,0,1-2.16,1.13,32.16,32.16,0,0,1-4.67-.93,16.67,16.67,0,0,1-6.93-4.49c3.92,2,7.7,4.35,12.49,4.21a3.76,3.76,0,0,0-2.81-2.83c-1.85-.7-3.82-1.11-5.73-1.63-1.31-.36-2.63-.68-3.91-1.1-.69-.22-.66-.31-1-1.38Z"/><path class="cls-1" d="M237.05,182.59c-8,4.26-15.78,3.83-23.53-.38,1.07.09,2.14.13,3.2.29a25.81,25.81,0,0,1,3.28.69c4.85,1.33,9.66.64,14.48-.21.85-.15,1.71-.26,2.57-.39Z"/><path class="cls-1" d="M200.34,199.55c-.82,2-1.66,4-2.46,6.09,0,.11.25.35.47.64,3.35-1.66,3.11-5.26,4.42-8,0,2.64-.33,5.18-2,7.31-1,1.18-2,2.18-3.69,1.12a15.52,15.52,0,0,0-2.77,6.14c-.1.62,0,1.63.42,1.91.83.58,1.43-.31,1.93-.89s.89-1.25,1.44-1.81a4.44,4.44,0,0,1-2,3.25,1.51,1.51,0,0,1-2.6-1.09,7.07,7.07,0,0,1,.35-2.81,16.31,16.31,0,0,1,1.5-3,14.05,14.05,0,0,0,1.74-3.86,10.33,10.33,0,0,1,3.31-5Z"/><path class="cls-1" d="M213.9,209.47A11.38,11.38,0,0,1,214,212c-.1.53-.66,1.35-1.05,1.37a2.75,2.75,0,0,1-1.72-.89,7.79,7.79,0,0,1-1-1.84,12.66,12.66,0,0,1-.87,2.31,2.24,2.24,0,0,1-1.4,1c-.38,0-1-.53-1.19-1a3.57,3.57,0,0,1-.24-2.13l1.09,2.42c1.69-1.1,1.69-1.1,1.14-6.47a1.44,1.44,0,0,1,1.55,1.38,11.9,11.9,0,0,0,.81,2.73,17.8,17.8,0,0,0,1.31,2.14c1.92-.82.91-2.53,1.56-3.59Z"/><path class="cls-1" d="M216.13,191.41a19.82,19.82,0,0,1,8.27,4.83,2,2,0,0,1,.46,1.67,2.26,2.26,0,0,1-1.46,1c-1.2.32-2.55-.24-4.65-1.72,1.76.28,3.36,1.63,5.3.36-1.9-3.17-5.71-3.63-7.92-6.14Z"/><path class="cls-1" d="M205.36,199.54l1.73,2.89a5.29,5.29,0,0,0,1.14-5c-.27-1.24-.72-2.45-.94-3.7a13.87,13.87,0,0,1,0-2.41l.63,0c.45,2.53,1,5,1.29,7.58a6.21,6.21,0,0,1-.78,3.17c-.73,1.44-1.9,1.41-2.69,0a10.79,10.79,0,0,1-.73-2.44l.33-.05Z"/><path class="cls-1" d="M203.57,202.85c-.45,1.38-.88,2.77-1.34,4.14-.31.91-.74,1.78-1,2.7a2.42,2.42,0,0,0,.8,2.84c1.93-.69,2-2.69,2.95-4.06a6.31,6.31,0,0,1-1.57,4.07c-1,1.1-2.33,1-2.86-.34a5.26,5.26,0,0,1-.23-3.22c.71-2.17,1.77-4.22,2.68-6.32l.54.19Z"/><path class="cls-1" d="M232.31,180.81a3.24,3.24,0,0,1-3.1,2.27,18.09,18.09,0,0,1-4.22-.41c-2.07-.46-4.08-1.12-6.27-1.74a11.75,11.75,0,0,1,5.58.49,10,10,0,0,0,8-.61Z"/><path class="cls-1" d="M237.41,193.15l2.18-1.35a7.89,7.89,0,0,0-1.07-1.53,10.61,10.61,0,0,0-6.12-2.45c-1.35-.11-2.7-.1-4.07-.3a8.31,8.31,0,0,1,4-.46,11.48,11.48,0,0,1,6.6,2.49c.77.61,1.56,1.2,1.36,2.33-.14.78-.8,1.07-2.9,1.27Z"/><path class="cls-1" d="M229.29,199.75a11.07,11.07,0,0,1,6.05,3,2,2,0,0,1,.59,2.59,1.91,1.91,0,0,1-2.52.74,11.61,11.61,0,0,1-2.62-1.49c1.43-.11,2.83,1.61,4.28-.16-1.07-2.41-3.61-3-5.78-4.64Z"/><path class="cls-1" d="M217,177.69c1.16.06,2.33.06,3.49.2s2,.44,3,.63a9.09,9.09,0,0,0,7.88-1.7,4.63,4.63,0,0,1-4,2.58,19.9,19.9,0,0,1-4.49-.22c-2-.28-4-.75-6-1.15,0-.11,0-.23,0-.34Z"/><path class="cls-1" d="M241.7,174.58c1.24,1.42,1.33,2,.33,3.19a4.94,4.94,0,0,1-3.72,1.91c-1.31,0-2.63-.18-3.95-.27,0-.21,0-.42,0-.63a20.7,20.7,0,0,0,2.08-.11,14.1,14.1,0,0,0,3.47-.63c1.78-.73,2.08-1.53,1.81-3.46Z"/><path class="cls-1" d="M183.41,199c-.45.51-1.06.8-1.53.24a1.66,1.66,0,0,1-.18-1.5,9.36,9.36,0,0,1,5.38-4.94c-1,1-2,2-2.94,3a10.32,10.32,0,0,0-1.57,2.36c-.29.62,0,1.09.83.82Z"/><path class="cls-1" d="M197.69,223c-4.57,1-7.85-.39-10.5-3.51,1,.62,1.94,1.3,3,1.82a14.37,14.37,0,0,0,3.29,1.33,30,30,0,0,0,4.24.36Z"/><path class="cls-1" d="M197.66,190.54l-5,6.33a7.55,7.55,0,0,1,5-6.33Z"/><path class="cls-1" d="M183.4,199c.11.36.4.79.29,1.06-.57,1.45-1.36,2.83-1.85,4.3a14,14,0,0,0-.29,3.14c-.31-.8-.58-1.53-.86-2.26h0c.56-1.24,1.13-2.47,1.68-3.71.37-.84.7-1.69,1-2.53Z"/><path class="cls-1" d="M231.66,194.4l-8-1.66c2.16-.64,5.42,0,8,1.66Z"/><path class="cls-1" d="M180.69,205.27c-.43.47-.85.94-1.29,1.41a1.62,1.62,0,0,1-2.12.53,1.54,1.54,0,0,1-.37-2.32A17,17,0,0,1,180,201a30.56,30.56,0,0,0-1.66,2.58c-.46.88-.77,1.85-1.17,2.85,1.83.9,2.42-.73,3.47-1.18Z"/><path class="cls-1" d="M227.14,206.23c1.27-.69,1.12-1.52.37-2.39a13.59,13.59,0,0,1-1.94-2.5,5.61,5.61,0,0,1,3.07,2.83c.58,1.23.18,1.81-1.5,2.06Z"/><path class="cls-1" d="M213,178.16a16.44,16.44,0,0,1-.35,2.2c-.1.32-.44.75-.7.77a1.2,1.2,0,0,1-.92-.56c-.61-1-.16-1.7,2-2.41Z"/><path class="cls-1" d="M228.75,173.35l-4.4,1.47c-.06-.18-.11-.36-.17-.54a6.74,6.74,0,0,1,4.39-1.48l.18.55Z"/><path class="cls-1" d="M239.32,172.3l4.19-2.74a5.51,5.51,0,0,1-4.19,2.74Z"/><path class="cls-1" d="M242.94,186.78l-1.13,1.15c.61-2.26-1.54-1.74-2.24-2.7,1.59-.27,2.38.9,3.37,1.66v-.11Z"/><path class="cls-1" d="M214,209.47l-1.86-3.85a5,5,0,0,1,1.78,3.85Z"/><path class="cls-1" d="M180.37,199.72l-2.54,1.91c-.07-.09-.15-.18-.22-.28l2.52-1.92.24.29Z"/><path class="cls-1" d="M224.92,217.33l-1.83.61-.12-.36,1.86-.53.09.28Z"/><path class="cls-1" d="M215.67,215.61c.12-.55.23-1.09.34-1.63l.47.08-.27,1.64-.54-.09Z"/><path class="cls-1" d="M235.16,196.54l-.95-.95.07-.08,1,.87-.11.16Z"/><path class="cls-1" d="M249.25,181.63c.13.42.25.85.38,1.28l-.57.16-.33-1.29.52-.15Z"/><path class="cls-1" d="M221.64,203.67c-.15-.28-.77.59-1.14-.63l1-.19c0,.22.05.44.1.82Z"/><path class="cls-1" d="M253.18,151.78a21.33,21.33,0,0,0,3.16-1,3.61,3.61,0,0,0-.44.33c-.1.09.06.24.17.16a8.15,8.15,0,0,1,2-1,21,21,0,0,1,2.5-.4,11.55,11.55,0,0,1,2.48.39l.12,0c.38.15.76.32,1.14.49-3.78-.12-7.4.81-11.12,1.13l-.5,0,.45-.12Zm2.64-1.06-1.51.46a.1.1,0,0,0,0-.15l1.54-.31Zm3.38-7.93c1.14.59,2.3,1.13,3.51,1.63.65.26,1.32.51,2,.75a34.1,34.1,0,0,1-5.5-2.38Zm-12.83,8a28,28,0,0,1-3.77-1.63l-.35-.19-.14-.14s-.08,0-.07,0a29.34,29.34,0,0,1-2.95-1.85c-1-.72-1.86-1.64-2.86-2.36a31.71,31.71,0,0,1-2.74-3.12,16.37,16.37,0,0,1-3.84-9.86c0-2.53,1.37-5.86-.3-8.21.86.43,1.71.87,2.55,1.31,1.38.73,2.75,1.48,4.09,2.25a18.58,18.58,0,0,1,1.48,6.83,26.64,26.64,0,0,0,.56,3.95,8.55,8.55,0,0,0,1.6,3.5.23.23,0,0,0-.06.12c0,.3.52.41.56.11s-.22-.31-.39-.28a12.82,12.82,0,0,1-1.6-3.81,35.16,35.16,0,0,1-.52-4.2,16.39,16.39,0,0,0-1.27-6c2.23,1.3,4.4,2.68,6.46,4.16.22,1.64.63,3.3,1,4.92a24.11,24.11,0,0,0,1.44,4.76c1.14,2.54,2.94,5.31,5.91,6.7,0,0,.08,0,0-.06a14.89,14.89,0,0,1-5.9-7,28.44,28.44,0,0,1-1.37-4.8c-.29-1.42-.45-2.89-.86-4.31l1.38,1,.7.55,1.74,1.37a99.41,99.41,0,0,0,10.69,7.86c4.41,2.66,9.95,4.86,15.4,4.59h0q.66,0,1.32,0s0,0,0,0c-.4,0-.79,0-1.18-.08.07-.1,0-.26-.19-.26a29.52,29.52,0,0,1-4.76-.5,32.64,32.64,0,0,1-4.71-1.5,53.47,53.47,0,0,1-9.5-5.21l-1.23-.84c-1.84-1.42-3.6-2.91-5.38-4.36A87,87,0,0,0,236,126.07l-.52-.3-.16-.2c-.05-.06-.14,0-.12.05l-.81-.47c-.94-.55-1.91-1.08-2.9-1.57-2.59-1.37-5.23-2.68-7.88-4-1.87-.92-3.77-1.82-5.61-2.79l-1.5-.83-.27-.15c-1.85-1.07-5.3-2.69-3.94-4.85a27.37,27.37,0,0,0,4.09,2.86,49.72,49.72,0,0,0,4.51,2.58c.58.29,1.17.57,1.77.83a12.23,12.23,0,0,0,3.59,1.64,14.25,14.25,0,0,0,3.78.75.25.25,0,0,0,.38.14l.22-.15h.17s0,0,0,0l-.09,0,.15-.1.28,0c7.39.79,14.71-.85,22.09.41a20,20,0,0,1,9.7,4.19s.15,0,.1-.07c-4.08-4.1-11.12-4.91-17-4.87-4,0-7.92.34-11.9.19q-1.39-.06-2.76-.21a31.66,31.66,0,0,1,20.36-3.81,30.78,30.78,0,0,1,15.55,8,0,0,0,1,0,0,0,21.78,21.78,0,0,0-3.77-3.43,27.24,27.24,0,0,0-4.33-2.43c-.85-.38-1.71-.73-2.6-1q1.13.34,2.22.78c7.94,3.2,13.81,9.58,15.64,16.62-2,3.64.08,8.81,4,11.31.21.16.43.33.65.48-1.78,0-3.52,0-5.31-.06,0,0,0,.05,0,.06a20.71,20.71,0,0,0,5.39.1l0,0a19,19,0,0,0,2.11,1.22l-1.13-.43s0,0,0,0c.46.27.89.57,1.35.84.23.14.43.29.65.43a2.06,2.06,0,0,0-.77.75,1.76,1.76,0,0,0-.17,1.52,1,1,0,0,0-.47.19l0,0c-.84.37-1.42,1.11-1.1,2h0c-.54.18-.46-.2-.77-.27h-.08l-.07,0a1.22,1.22,0,0,0-.57,0,1,1,0,0,0-.61.35l-.1,0a1,1,0,0,0-.54-.27,1.77,1.77,0,0,0-.61,0,2.59,2.59,0,0,1-1.6-.11c-1.41-.57-2.16.32-3.59.39a.21.21,0,0,0-.15.07c-1-.28-2-.62-3.06-.93-.08,0-.13.07-.07.11l.22.11-2.15-.65a10.58,10.58,0,0,0-2.35-1.26,8.34,8.34,0,0,0-3.36-.88.14.14,0,0,0-.15.1,7.2,7.2,0,0,0-3.59.52l-.3.12c-1.22.26-2.41.59-3.62.91a15.63,15.63,0,0,1-5.4.51c-.25-.07-.49-.14-.73-.23Zm28.62-14c.2,2.08.24,4.26,1.42,6.16a10.58,10.58,0,0,1-1.68-2.66,9.8,9.8,0,0,1-.2-6.19,17.8,17.8,0,0,1,.46,2.69Zm8.73,12h0a1,1,0,0,0,0-.17,1,1,0,0,1,0,.1,1.55,1.55,0,0,1,.11.56c-.7,3-4,4.73-7.59,4.77a17.72,17.72,0,0,1-5.95-1.06c-1.07-.37-2.08-.85-3.1-1.31l1.16.32,2.17.58a5.83,5.83,0,0,0,1.6.32,1.87,1.87,0,0,0,1-.42,1.2,1.2,0,0,1,1.12,0c.32.19.48.43,1,.46a.93.93,0,0,0,.32,0h.23a8.78,8.78,0,0,0,1.13-.42.64.64,0,0,1,.41.09.18.18,0,0,0,.13,0h0a.31.31,0,0,0,.46.09,2,2,0,0,0,.25-.26c.48-.19,1.05,0,1.56-.08.25.18.76.07.69-.25l0-.22c.34-.58.23-1.48,1-1.66h0a1.81,1.81,0,0,0-.08.51s.1.08.13,0a1.58,1.58,0,0,0,.24-.39.4.4,0,0,0,.49-.16c.18-.41,0-.85.14-1.28a2.05,2.05,0,0,1,.37-.58c.75-.12,1.09,0,1,.41Zm-32.11,3.44c4.47-.14,8.72-1.46,13.23-1.31l.27.09a27.29,27.29,0,0,0,5.74,2.46,16.92,16.92,0,0,0,6.23.87,10.16,10.16,0,0,0,4.39-1.34,4.83,4.83,0,0,0,1.8-1.43,3.82,3.82,0,0,0,1-2c.16-.27-.06-.77-.19-1a2,2,0,0,0-.75-.73l0,0,.18.07c.07,0,.12-.05.05-.09l-.18-.1c0-.13-.09-.26-.29-.25l-.16,0c-2.09-1.1-4.28-2.19-5.72-3.91-1.74-2.1-1.68-4.62-1.92-7a21.25,21.25,0,0,0-4.78-11.21,28.53,28.53,0,0,0-10.81-8.16,31.89,31.89,0,0,0-10.55-2.52h-.11a31.24,31.24,0,0,0-10,.45c-3.12.71-6.74,1.93-9,3.84a29.18,29.18,0,0,1-7.4-2.15,45.58,45.58,0,0,1-5.35-2.86,54.35,54.35,0,0,0-4.93-3.09l.11-.15c.12-.15-.16-.33-.32-.24a1.87,1.87,0,0,0-1,1.94,1.37,1.37,0,0,0,.2.79l.12.24a.1.1,0,0,0,0,.17l.12.08a3.9,3.9,0,0,0,.4.51c1.44,1.53,3.84,2.42,5.78,3.41,3.51,1.78,7.08,3.49,10.6,5.26a4.93,4.93,0,0,1,1.26,3.44c0,1.89-.61,3.72-.56,5.62a16.93,16.93,0,0,0,3.75,9.55,33.5,33.5,0,0,0,8.26,7.71,18.08,18.08,0,0,0,10.58,3.07Z"/><path class="cls-1" d="M251,128.38a50.25,50.25,0,0,1,6.9.87,49.07,49.07,0,0,1,12.77,4.44h0A44.06,44.06,0,0,0,258,129a47.84,47.84,0,0,0-6.74-.89c-1.16-.07-2.33-.1-3.49-.09a12,12,0,0,0-3.25.25c-.07,0-.08.12,0,.13a20.79,20.79,0,0,0,3.25-.08c1.08,0,2.16,0,3.25.06Z"/><path class="cls-1" d="M248.91,128.74c1.14,0,2.29,0,3.43.11a34.54,34.54,0,0,1,7.21,1.38s0,0,0,0a31.55,31.55,0,0,0-7.21-1.49,24.08,24.08,0,0,0-7.1.2,0,0,0,0,0,0,.07c1.22-.05,2.42-.23,3.65-.26Z"/><path class="cls-1" d="M242.61,129a28.87,28.87,0,0,0-5.32-4.6,34.06,34.06,0,0,0-3-1.79,17.8,17.8,0,0,0-3.33-1.49c-.06,0-.08.06,0,.08,1,.55,2.13,1,3.16,1.51a32.69,32.69,0,0,1,8.42,6.34s.12,0,.08-.05Z"/><path class="cls-1" d="M230.1,120.89a83.67,83.67,0,0,1,16.47-.92s0,0,0,0a84.83,84.83,0,0,0-16.57.57c-.34,0-.25.45.1.39Z"/><path class="cls-1" d="M249.79,134.29c-.47-.42-.94-.85-1.4-1.29.67.56,1.33,1.13,2,1.7.89.81,1.77,1.63,2.63,2.45l.3.31c-1.16-1.07-2.34-2.12-3.51-3.17Zm5.49,5A29.24,29.24,0,0,0,271.05,146s0,0,0,0a31.51,31.51,0,0,1-15.4-6.7,42.68,42.68,0,0,0,13.42,2.19s0,0,0,0A54.18,54.18,0,0,1,255.25,139a35.77,35.77,0,0,0-4.5-4.36,60.63,60.63,0,0,0-4.76-4.07c1.65-.13,3.27-.29,4.93-.31a44.54,44.54,0,0,1,15.52,2.6s0,0,0,0a45.44,45.44,0,0,0-10.28-2.44,38.23,38.23,0,0,0-10.36,0h0l-.36-.26c-.16-.11-.33.06-.2.19l.1.08a.1.1,0,0,1-.05,0c-.05,0-.13,0-.09.07a58.33,58.33,0,0,0,4.34,3.92c1.53,1.35,3.05,2.7,4.63,4h0a11.8,11.8,0,0,0,1.05.93l0,0Z"/><path class="cls-1" d="M251.09,130.82a19.88,19.88,0,0,1,3.85.32s.05,0,0,0a17.48,17.48,0,0,0-3.75-.45,11.07,11.07,0,0,0-3.69.46s0,.07,0,.07c1.19-.08,2.34-.33,3.56-.35Z"/><path class="cls-1" d="M248.65,131.58a24.83,24.83,0,0,1,4.8,0s0,0,0,0a12.28,12.28,0,0,0-4.83,0c-.06,0,0,.09,0,.09Z"/><path class="cls-1" d="M253.81,132.28a34.2,34.2,0,0,1,4.52.3s0,0,0,0a38.19,38.19,0,0,0-4.4-.36,17.25,17.25,0,0,0-4.38.24c-.05,0,0,.06,0,.07,1.41,0,2.83-.21,4.24-.22Z"/><path class="cls-1" d="M254.32,133.39c1,0,2.08.05,3.12.13a44.76,44.76,0,0,1,6.43,1s.05,0,0-.05a41.94,41.94,0,0,0-6.31-1,27.24,27.24,0,0,0-6.38,0c-.05,0,0,.07,0,.07,1,0,2.07-.07,3.11-.07Z"/><path class="cls-1" d="M256.47,134.43c.06,0,.08-.06,0-.08a9.18,9.18,0,0,0-4.16-.24c-.08,0-.05.11,0,.11a24.62,24.62,0,0,1,4.11.21Z"/><path class="cls-1" d="M254.35,134.73a17.46,17.46,0,0,1,2.16.17c.06,0,.08-.06,0-.07a8.57,8.57,0,0,0-3.86-.16,0,0,0,0,0,0,.07c.55.06,1.11,0,1.67,0Z"/><path class="cls-1" d="M255.87,135.52s0,0,0,0c-.77,0-1.55,0-2.31,0,0,0,0,0,0,0,.77,0,1.55,0,2.32,0Z"/><path class="cls-1" d="M258.9,136.57a31.83,31.83,0,0,1,4.46.58s0,0,0,0a28.69,28.69,0,0,0-4.33-.68,18.33,18.33,0,0,0-4.38,0c-.07,0,0,.1,0,.1,1.41,0,2.8-.08,4.22,0Z"/><path class="cls-1" d="M258.64,137.29a28.35,28.35,0,0,1,3.78.5s0,0,0,0a28.47,28.47,0,0,0-3.79-.6,15.24,15.24,0,0,0-3.57,0c-.08,0,0,.1,0,.11,1.17.07,2.36,0,3.54.06Z"/><path class="cls-1" d="M258.47,137.89a0,0,0,1,0,0-.06,22.61,22.61,0,0,0-3.06-.22.06.06,0,0,0,0,.11,21,21,0,0,0,3.07.17Z"/><path class="cls-1" d="M263.1,139.39s0,0,0,0c-1.29-.11-2.59-.26-3.87-.48-1.09-.19-2.22-.51-3.32-.6a.06.06,0,0,0,0,.12,16.63,16.63,0,0,0,3.59.68c1.21.15,2.42.26,3.64.33Z"/><path class="cls-1" d="M264,142.21s0,0,0,0a20.67,20.67,0,0,1-3.21-.53c-1-.24-1.89-.64-2.86-.87a0,0,0,0,0,0,.09,10.91,10.91,0,0,0,3,.93,23.37,23.37,0,0,0,3.12.41Z"/><path class="cls-1" d="M256.12,122.13c.06,0,.08-.07,0-.08a36.73,36.73,0,0,0-9.74-.79c-.08,0-.07.09,0,.09a77.17,77.17,0,0,1,9.71.78Z"/><path class="cls-1" d="M255.64,122.88c.05,0,.07,0,0-.06a24.28,24.28,0,0,0-5.83-.5c-.06,0-.05.08,0,.09a48.93,48.93,0,0,1,5.8.47Z"/><path class="cls-1" d="M257.83,123.9s.05,0,0-.05a24.36,24.36,0,0,0-7.47-.33s0,.06,0,.06a37.27,37.27,0,0,1,7.46.32Z"/><path class="cls-1" d="M236.19,119.1c1.3-.12,2.58-.37,3.88-.5s2.62-.21,3.94-.23a48.61,48.61,0,0,1,8.17.51s0,0,0,0a50.73,50.73,0,0,0-8.06-.64c-1.37,0-2.73.09-4.08.21a22.82,22.82,0,0,0-3.89.59,0,0,0,0,0,0,.09Z"/><path class="cls-1" d="M238.38,118.48c1.37-.2,2.76-.37,4.15-.48a65.82,65.82,0,0,1,7.95-.13s0-.05,0-.06a59,59,0,0,0-8.09,0c-1.24.09-2.47.22-3.7.4a19.82,19.82,0,0,0-4,.76s0,.07,0,.07c1.22-.09,2.42-.43,3.63-.61Z"/><path class="cls-1" d="M235.29,118.57a51.19,51.19,0,0,1,6.12-1.34,32.92,32.92,0,0,0-6.13,1.31s0,0,0,0Z"/><path class="cls-1" d="M241.41,117.23c1.42-.18,2.87-.3,4.32-.37a32.55,32.55,0,0,0-4.32.37Z"/><path class="cls-1" d="M246.08,116.84l-.35,0h.35s0,0,0,0Z"/><path class="cls-1" d="M255.21,124.52c1.54.12,3.07.33,4.59.59.05,0,.06,0,0,0a30.25,30.25,0,0,0-4.35-.66,23.9,23.9,0,0,0-4.63-.06c-.07,0-.06.08,0,.09,1.46,0,2.9,0,4.36.09Z"/><path class="cls-1" d="M259.6,126c.07,0,.09-.07,0-.09a42,42,0,0,0-7.24-.73s0,.05,0,.05c2.42.2,4.82.43,7.22.77Z"/><path class="cls-1" d="M259.4,126.85c.05,0,.06,0,0-.06-2-.27-4-.57-6-.76,0,0,0,0,0,0,2,.33,4,.54,6,.78Z"/><path class="cls-1" d="M259.14,127.48c-1.23-.18-2.46-.34-3.7-.48,0,0,0,0,0,0,1.22.2,2.45.37,3.68.54.06,0,.08-.07,0-.08Z"/><path class="cls-1" d="M255.1,127.77c1.7.21,3.37.55,5,.88.05,0,.06-.05,0-.06a31.56,31.56,0,0,0-5.3-1,29.57,29.57,0,0,0-5.14-.26c-.06,0-.06.08,0,.08,1.8.1,3.58.13,5.38.36Z"/><path class="cls-1" d="M248.23,127s0,0,0,0c-.9,0-1.81,0-2.7.08,0,0,0,0,0,0,.9,0,1.8,0,2.7-.06Z"/><path class="cls-1" d="M251.73,149.14a24.07,24.07,0,0,1-5-3.58s-.1,0-.07.05a16.47,16.47,0,0,0,5.08,3.56s0,0,0,0Z"/><path class="cls-1" d="M250.16,149.29a18.38,18.38,0,0,1-5.19-4.48s-.06,0-.05,0a15.84,15.84,0,0,0,5.21,4.49s.05,0,0,0Z"/><path class="cls-1" d="M250.73,150.22a15.35,15.35,0,0,1-7.34-6.33s-.11,0-.08,0a13,13,0,0,0,7.39,6.35s.07,0,0-.05Z"/><path class="cls-1" d="M247.52,149.81a27.64,27.64,0,0,1-6.62-7.38s-.07,0-.06,0a22.73,22.73,0,0,0,6.67,7.37s0,0,0,0Z"/><path class="cls-1" d="M246.21,150.28a57.29,57.29,0,0,1-5.71-6.08s-.09,0-.06,0a29.62,29.62,0,0,0,5.71,6.11s.11,0,.06-.07Z"/><path class="cls-1" d="M233.26,139.53a25.92,25.92,0,0,1-2.71-14.06,0,0,0,0,0-.05,0,22.76,22.76,0,0,0,2.73,14.08s0,0,0,0Z"/><path class="cls-1" d="M234.84,141.55s0,0,0,0Z"/><path class="cls-1" d="M239.26,145.39c-1-1.19-2.27-2.26-3.28-3.47a18.62,18.62,0,0,1-2.57-4.06s0,0,0,0A24,24,0,0,0,235.7,142a13.18,13.18,0,0,0,3.44,3.51c.07,0,.17,0,.12-.07Z"/><path class="cls-1" d="M240,121.42c1.9-.08,3.81,0,5.72-.06.08,0,.07-.09,0-.09a47.93,47.93,0,0,0-5.87,0,31.92,31.92,0,0,0-5.55.52s0,.06,0,.06c1.9,0,3.79-.31,5.69-.39Z"/><path class="cls-1" d="M243.84,121.82c.06,0,0-.07,0-.07-2.16.12-4.36.17-6.5.42-.05,0-.05.07,0,.07,2.17,0,4.34-.26,6.49-.42Z"/><path class="cls-1" d="M244.45,122.38s0,0,0,0c-1.52.07-3,.1-4.55.23a0,0,0,1,0,0,0c1.52,0,3-.15,4.55-.24Z"/><path class="cls-1" d="M243.16,123.71a30.63,30.63,0,0,1,3.59-.09c.05,0,0-.06,0-.06a33.73,33.73,0,0,0-4,0,10.22,10.22,0,0,0-3.15.47c-.07,0,0,.11,0,.11a30.09,30.09,0,0,0,3.55-.38Z"/><path class="cls-1" d="M242,124.74c.43-.1.86-.18,1.29-.26a0,0,0,1,0,0,0c-.44,0-.88.1-1.32.13a3.47,3.47,0,0,0-1,.17.07.07,0,0,0,0,.13,3.63,3.63,0,0,0,1-.14Z"/><path class="cls-1" d="M249.52,146a27.76,27.76,0,0,1-5.33-11.7s0,0,0,0A25.56,25.56,0,0,0,249.49,146s0,0,0,0Z"/><path class="cls-1" d="M238.2,137.2a59.35,59.35,0,0,0-.55-8.2h0a59.3,59.3,0,0,0,.51,8.2s0,0,0,0Z"/><path class="cls-1" d="M255.94,147.67a23.16,23.16,0,0,1-3.48-4.56c0-.05-.12,0-.1,0a12.59,12.59,0,0,0,3.54,4.55s.06,0,0,0Z"/><path class="cls-1" d="M254.08,146.93a35.54,35.54,0,0,0-2.6-3.43c-.06-.06-.15,0-.11.05A36.93,36.93,0,0,0,254,147c.05.05.14,0,.1,0Z"/><path class="cls-1" d="M257.49,147.35a11.08,11.08,0,0,0-1.17-1.41s-.09,0-.06,0a9.81,9.81,0,0,0,1.22,1.37s0,0,0,0Z"/><path class="cls-1" d="M266.52,149.94s0,0,0,0a13.47,13.47,0,0,0-6.61-1.67,0,0,0,1,0,0,.08,18.77,18.77,0,0,1,6.59,1.62Z"/><path class="cls-1" d="M263.87,148.09c.07,0,.09-.07,0-.08a26,26,0,0,0-3.73-.43c-.05,0-.05.06,0,.08a27.2,27.2,0,0,0,3.71.43Z"/><path class="cls-1" d="M232.68,133.51a12,12,0,0,1-.18-5c0-.12-.17-.15-.21,0a6.52,6.52,0,0,0,.21,5c0,.07.2.06.18,0Z"/><path class="cls-1" d="M213.75,113.3l-.13-.15s-.1,0-.06,0l.15.14s0,0,0,0Z"/><path class="cls-1" d="M217.62,116c-.78-.52-1.59-1-2.38-1.53,0,0,0,0,0,0,.79.51,1.58,1,2.38,1.53,0,0,0,0,0,0Z"/><path class="cls-1" d="M230.35,121.9c-3.61-1.69-7.26-3.33-10.86-5,0,0-.07,0,0,0a67.71,67.71,0,0,0,10.88,5s0,0,0,0Z"/><path class="cls-1" d="M239.81,127.72c-1.36-1-3.47-2.46-6.66-4.58.74.93,3.65,2.67,6.66,4.58Z"/></svg>