<svg id="Capa_1" data-name="Capa 1" xmlns="http://www.w3.org/2000/svg" viewBox="0 0 500 300"><defs><style>.cls-1{fill:#fff;}</style></defs><title>Mesa de trabajo 7</title><path class="cls-1" d="M175.73,195.51c.69,5,3.68,8.9,7.2,12.45l-7.2-12.45Zm131.08-73.6c-3.08.43-7.11,2.66-11,5.94a5.2,5.2,0,0,0,2.35,3.52c2.8-3.09,4.71-3.7,8.63-9.46ZM202,107.64c.32-1.57,14.88,6.86,11.53-3.2l-6,2.51c.92-1.49,3.27-1.57,5.87-3.25l-.94-1.14c-1.54.77-3,1.29-7.68,3.92,1.61-2.7,4.65-3.11,7.48-4.57-4.47.55-9,3.1-10.27,5.73ZM327.25,93.15c-8.95-13.86-28.56-20.61-45.72-24.33,0,.13-.07.26-.11.39a157.42,157.42,0,0,1,45.83,23.94ZM204.18,148.24l.48.06c6.4-6-16.57-33.76-1.06-36.63-4-1.48-8.72.77-9.94,4.43.87-.49,1.22-1.83,2.76-1.67-1.09,2.29-2.86,4.09-3.48,6.91l2.26-2.28c-.28,1.91-2.32,3.17-1.74,5.61,1-1.25,1.51-2.68,2.82-3.37,0,2-2.27,1.28-1.69,6.55.82-1.2,1-2.59,2.53-3.45,0,1.19-.61,0-.92,5l1-1c-.11,2.58-3.48,6.58-1.15,11.46.78-1.1.76-2.33,2-3.25.55,1.2-1.65.06-.11,5.8.67-1.42,0-3.57,2.61-6.71-.19,1.91-1.53,3.33-.93,8.51a11.61,11.61,0,0,1,1.08-1.69c.06,1.08.1,1.85.14,2.63.78-2.27,1.15-4.59,2.35-6.66.25,1.68-1.25,4-.4,7,.09-.43.18-.82.26-1.21l.47.08.72,3.91Zm139.09-1.88c3.57,9.7-26.44,16.22-26.6,28.07,4.89-1.93,40.72-17.85,26.6-28.07ZM205.76,135.89c5.72-1,18-7.94,13.78-16.18-14.25-10.29-28.72-10.5-13.78,16.18Zm11-80.33c-.07.15-.13.3-.19.45C287,71.09,249,87.75,285.38,83.52c-1.58-1.44-3.52-2-4.86-3.47,14.88,2.79,32,6.85,47,15.38-20-16.43-46.33-25.9-73-31.89C266,65.54,269.63,79,286.7,74.33c-13.65,4.82-10.46,1.57-29-8.38-13.19-5-26.25-6-41-10.39Zm72.76,138.73c8.46-5.65,20.58-2,31.94-1.56-10.25,2.49-24-4.95-35.07,4.43,11.65,7.37-14.57,32.19,2.41,32.11,8.85-2.34,22.92-8,26.95-19.14-7.11-1.54-14.7,0-23.21,3.83,6.73-6.92,18.23-2.61,26.63-7.38,16.61-31.91-22.16-44.52-44-26.76,6.82,3.54,1.9,10.24,10.11,16.4,12.76-6.75.79-18.31,9.91-23.79-5.27,5.71.52,14.21-5.68,21.86Zm35.93-80.17c-10.11,6.12-38.07,12.75-17.94,29.88a20,20,0,0,1,1.91-2.37l.29.23-1.94,3.08c5.51,9.41-19.64,25.56,4.63,24.32a38.77,38.77,0,0,0,0-10.16l-5.55,9.13c2.45-9.86,12.21-18.72,7.21-31.77-.75.9.61.16-2.26,3.37,3-7.86,6.39-19.09,14.05-26.34l.26.18-3,4.31c6.46,8,7.06,19.16,13.06,30.38-1.83-1.62-3.39-4.21-5.81-8.66-1.64,4.35-.5,8.27,1,12.27-6.22-9.6.87-21.66-9.14-32.7-7.86,8-5,26.89-9,49.86,16.46-20.09,39.53-7.69,23.09-53,.12,2.81,1,5.83,1.34,13.2-3.22-6.1-2.58-16-6.87-24,1.8,1.18,2.68,4.83,9.42,12.9,1.37-5.92-1.09-12.73-5.53-19.11-.89,1.18-3.87,5.92-7.46,10.78,1.24-3.51,4.89-8.12,7.6-12.92,13.23,13.66,2.12,32.92,11.48,50.17,1.9,2.76,3,5.16.41,9.5l2-.34c-10.12,4.66-18.35,15.85-31.71,19,1.3,1.62,2.73,2.11,7.44,9.1,8.83,2.85,8-10.74,14.28-11.29,9.72,2.93,2.48-1.44,7.42-10.53-5.76,2.37-11.4,7.66-17.54,12.61a47.11,47.11,0,0,1,20.64-15.35,6,6,0,0,0,.15-2.1c-2.41,4-1.89,22.84-11.29,19.91-1.32,3.12-4.9,12.32-8.57,14.77l1.48-2.51c-2.17.35-3.48,1.69-4.7,3.44-.08-1.28-.72-.91-1.21-.9C321.76,217,300,233.81,274.38,233.12c-9.21,11.8-51.62-3.69-42.59-20.18-39.08,8.72-30.89-40-30.73-65.11-5.28-2.32-14.11-24.9-7.05-35.47,9.32-2,18.24-49.58,55.7-45.27-10.13-4.88-23.14-5.49-35-10.59-110.21,75.28-15.24,235.71,92.18,190C423.74,199,357.43,19.33,241.37,44.74a5.2,5.2,0,0,0,.46.92c-6.35,1.31-12.5,2.93-18.14,6.39,23.9,15.12,95.63,9.7,107.7,45.93.08,2.3-5.55,1.33-6.22,5l4.2-1.47.15.37-4.5,2c-4,14.23-26,6-33.07,18.77l3.86,4c7.16-7,19.45-9.26,29.66-12.54Zm-36.43,12h0l1.86.19c-16.11-18.3-30.07-9.3-53.72-17.4,29.64,22,11.63,14.73,49,22.65-7.56-.29-15.95-4.08-25.63-2.84,15.07,19,20.11,6.93,34.84,19.22-5.75-2.21-12.49-8.14-20.76-2.92,7.5,11.86,7.38,6.06,21.19,11.93-2.08-1.57-3.92-2.32-11.93-.23,2.09,2.89,5.92,7,11.54,5.73-2.05,2.6-10.73,1-12.72-7.07-2.77-2.81-7-6.7-9.81-11.28.85,1.07,2.36-1.56,10.76-1.78-12.5.76-13.09-3.21-24.56-13.59l1-1c-11-7.35-21.21-18.22-34.64-26.11.74,6.7,25.5,17.06,28.71,27.36l1.82.58-.07,0c.39,1.71.39,1.71-1.39,2.83.31,8.61,1.78,21-2.85,30.63,3.2-5.24-.65-11.67,2.33-19.4-3.26,1.6-9.19,3.43-12.45-2.13,2.59,2.44,6.31,4.36,12.77.87.61-14.13-3.71-21.13-21.34-31.32,2,4,9.08,10.36,4.92,16.42-25.76,46.75,100.46,73.93,51.13-1.3Zm-57.79,1.9,0-.07-1.66.35c2.48-2.46,4.94-4.47,8.3-5.43l-1.15-3.09c-10.68,5.79-13.57,11.72-27.68,19.9l1.66,1.4,16.35-10.44c-26.91,16.42-36.07,49-16.16,76.39-.22-1.45-1.17-2.69-.54-4.59.06,2.32,2.07,3.91,3.05,7.32,11.45,3.76,28.47-7.29,25.6-22.28-.72-3.9,2.06-9-.76-14.82.71,1.72,2.35,2.84,2.48,9.46,4.87-17.84-16.43-40.16-3-57.82-2.37.9-4.7,1.83-6.51,3.72Zm41.93,103.53,0,.06c12.22-17.78,20.78-20.9.63-38.47,2.41-17.12-7.64-8.26-29.72-32.15,3.22,7.6,4.45,21.1,14.21,26.43-9.22-1.81-9.17-14.27-15.35-22,1.35,10,5.46,22.06.51,33.94-.62-5.59,2.32-11,1.48-18.75-3.12,12.46-10.41,25.79-11.48,40,7.41,11.47,26.53,21.94,39.76,11Zm16.5-136.24,0,0c-16.28-2.18-24.7,7.79-39.6,15,4,1.23,9-4.08,15.53-1.58-2.17.67-4.46.1-6.52,1.24,7.88,4.83,83.58,11.7,58.74-15.1-32.7-3.61-50.34-13.64-76.88,14,16.16,5.37,29.59-21.12,48.71-13.54Zm-58.32,15.73c0-3-11.35-7-5.91-11.26a44.14,44.14,0,0,0,6.94,5.06C230.71,93,238.59,90.94,245,72.55l-3.56-1.69c3.42-1.17,3.81,1.56,12.76-.47-35.89-3.45-56,22.19-28.24,54.45,4.16-2.7,4.58-7,5.49-13.82.74,3.44,1.25,6.87-.31,10.35l5.18-3c-1.08-1.35-2.48-4.77-4.91-7.31Zm28.85-23.3,0,.08a20.68,20.68,0,0,0,3.13-6.61A16.7,16.7,0,0,1,259.1,91c16-8-11.2-38-18.39-4.6,6-1,11-5.44,15.18-11.27-2.82,11.79-25.87,10.43-22.08,29.79,3.12.79,10.86,3.32,12.54-4.19-1.1.47-1.42,1.65-2.58,1.74,1.5-1.19,3.58-5.26,5.85-7.85-3.65,1.86-10.55,3.89-12.22,10.23.1-12.9,17.25-6.55,22.81-17.08Zm40.59,4.57c3.86,1,10.26-.94,16.07,1.07-7.54-6.81-22.15-7.19-28.7-4.27C291.83,89.43,295.07,91,300.8,92.34ZM210.33,55.05l-2.84-.94c-.27-.55-.56-1.15-.94-2C352-4.1,422.7,172,324.73,241.32c-129.83,73.56-228.12-105-114.4-186.27Z"/><path class="cls-1" d="M308.23,91.09l-7.43,1.25-2.62-.61c.42-.72,1.09-.5,1.66-.34a7.44,7.44,0,0,0,4.05-.23c1.42-.4,2.88-.8,4.31,0l0-.07Z"/><path class="cls-1" d="M201.34,104.06c-.17-.14-.53-.34-.5-.42a18.54,18.54,0,0,1,3-6.4q-1.05,3-2.11,5.91c-.13.3-.27.61-.41.91Z"/><path class="cls-1" d="M174.45,111.72c-.24.9-.45,1.8-.72,2.69A97.4,97.4,0,0,0,170,144a133.86,133.86,0,0,0,2.91,25.38c1.22,5.74,3.18,11.26,4.9,16.85a4.56,4.56,0,0,1,.37,3,5.69,5.69,0,0,1-.47-1c-1.7-5.67-3.54-11.31-5-17a116.11,116.11,0,0,1-2.91-19.57,111.41,111.41,0,0,1,.63-24.08,70.62,70.62,0,0,1,3.28-14.48c.17-.49.38-1,.58-1.45l.25.07Z"/><path class="cls-1" d="M191.42,186c-.38-1.09-.74-2.18-1.13-3.27-.75-2.14-1.6-4.25-2.27-6.42a124.82,124.82,0,0,1-4.77-26.14,146.3,146.3,0,0,1-.61-20.4c.15-2.94.66-5.87,1.1-8.79a8.77,8.77,0,0,1,1.38-3.54,5.22,5.22,0,0,1,0,.93,49.54,49.54,0,0,0-2,14.26,158.94,158.94,0,0,0,2,27.13,109.73,109.73,0,0,0,5.07,20.83c.63,1.74,1.08,3.54,1.61,5.31l-.32.1Z"/><path class="cls-1" d="M314.6,76.18a10.73,10.73,0,0,1-1.12-.42c-3.39-1.69-6.7-3.53-10.16-5.05A78.83,78.83,0,0,0,294,67.36c-4.54-1.33-9.16-2.42-13.75-3.62a.88.88,0,0,1-.7-.54,28.18,28.18,0,0,1,3.2.25A95.18,95.18,0,0,1,301.94,69c4,1.71,7.69,4,11.5,6a6.55,6.55,0,0,1,1.2,1l0,.07Z"/><path class="cls-1" d="M180.1,115.6c-.33,2.09-.6,4.19-1,6.27a106.32,106.32,0,0,0-1.41,26.3,86.4,86.4,0,0,0,3.08,18.49,2.7,2.7,0,0,1,.07,2.23c-5.27-15.72-5-38.76-.74-53.29Z"/><path class="cls-1" d="M178.24,109c.12,1.9-.75,3.47-1.22,5.15s-1,3.44-1.36,5.19-.79,3.63-1.12,5.46-.6,3.53-.84,5.3-.41,3.5-.6,5.25l-.4,0a12.79,12.79,0,0,1,0-1.75c.27-2.6.47-5.22.9-7.79.83-5,1.66-9.92,3.55-14.63.23-.57.45-1.15.71-1.71.08-.17.28-.29.42-.44Z"/><path class="cls-1" d="M176.51,104.18c2-7.71,9.52-19,13.74-21.21-2.56,3.34-5.36,6.55-7.64,10.09s-4.09,7.4-6.1,11.12Z"/><path class="cls-1" d="M175.85,169.74c-1.88-4.57-4.33-26.73-3.46-30.58.27,3.63.44,7,.78,10.39s.87,6.68,1.27,10,1.38,6.69,1.41,10.16Z"/><path class="cls-1" d="M191.69,91.63a93.42,93.42,0,0,0-9.95,20.25c-.34-4.1,6.1-16.58,9.95-20.25Z"/><path class="cls-1" d="M311.7,71.74c4.11,1.23,14.56,8.59,16.47,11.5a170.82,170.82,0,0,0-16.47-11.5Z"/><path class="cls-1" d="M180.37,104.85c.45-2.85,4.43-10.45,7.39-14.3a.58.58,0,0,1,.18.08s.07.11.05.14c-2.5,4.63-5,9.24-7.62,14.08Z"/><path class="cls-1" d="M188,156.14l4.65,18.74c-.37-.39-.54-.48-.58-.61-.8-2.78-1.67-5.55-2.35-8.35s-1.23-5.78-1.8-8.68a3.71,3.71,0,0,1,.14-1.07l-.06,0Z"/><path class="cls-1" d="M293.16,123c1.42-2.82,7.09-6.1,10.77-6.35-1.92,1-3.76,1.87-5.5,2.89s-3.37,2.21-5.27,3.46Z"/><path class="cls-1" d="M325.31,228.37a3.16,3.16,0,0,1-.51.79,84.32,84.32,0,0,1-12.71,8.38,1,1,0,0,1-.86,0c1.22-.74,2.46-1.46,3.64-2.25,2.86-1.9,5.69-3.85,8.54-5.76.62-.42,1.29-.76,1.94-1.13l0,0Z"/><path class="cls-1" d="M189.77,109.3a9.09,9.09,0,0,1,.92-3.19c1.64-4.22,4.51-9.43,6.12-11.2-2.31,4.72-4.63,9.45-7,14.39Z"/><path class="cls-1" d="M188.52,207.72a54.87,54.87,0,0,1-7.71-14l7.71,14Z"/><path class="cls-1" d="M189.33,201a8.2,8.2,0,0,1-.86-1c-2.41-3.74-4.1-7.85-6-11.85a4.63,4.63,0,0,1-.09-1c.91,1.79,1.6,3.18,2.31,4.56,1.34,2.62,2.69,5.22,4,7.84.24.48.41,1,.61,1.51l0,0Z"/><path class="cls-1" d="M186.86,131.47l.48,11.41c-.86-1.84-.7-3.79-.79-5.71s0-3.82,0-5.73l.33,0Z"/><path class="cls-1" d="M318,215.37a23.73,23.73,0,0,1,4.68-4,11.48,11.48,0,0,1-4.68,4Z"/><path class="cls-1" d="M194.44,152.32a12.08,12.08,0,0,1-.5-5.9,15.1,15.1,0,0,1,.5,5.9Z"/><path class="cls-1" d="M334.2,199c-.5,1.53-2.16,3.29-4.74,5.74l.05,0a21.06,21.06,0,0,1,4.74-5.75l-.05,0Z"/><path class="cls-1" d="M191.57,152.1q.88,3.9,1.75,7.8l-.22.06a13,13,0,0,1-.47-1.32c-.45-1.93-.88-3.87-1.27-5.81-.05-.21.17-.46.26-.69l-.05,0Z"/><path class="cls-1" d="M179.53,183.53a31.55,31.55,0,0,1-2.27-7.56,37.62,37.62,0,0,1,2.27,7.56Z"/><path class="cls-1" d="M192.62,206.57c.13,0,.31,0,.37.07,1.1,1.6,2.2,3.21,3.18,4.9a16.83,16.83,0,0,1-3.52-5l0,0Z"/><path class="cls-1" d="M188.21,105.24l-1.9,4.24c0-1.61.36-2.61,1.9-4.24Z"/><path class="cls-1" d="M192.65,206.53a18.27,18.27,0,0,1-3.32-5.58l0,0a17.3,17.3,0,0,1,3.32,5.58l0,0Z"/><path class="cls-1" d="M183.75,180.81A30.07,30.07,0,0,1,182,175a14.26,14.26,0,0,1,1.71,5.82Z"/><path class="cls-1" d="M188.2,192.76l-1.5-3a3.24,3.24,0,0,1,1.5,3Z"/><path class="cls-1" d="M329.46,204.69c-.38.57-.76,1.15-1.15,1.72l-.31-.26c.4-.57.71-1.21,1.51-1.43l-.05,0Z"/><path class="cls-1" d="M191.62,152.14c-.27-.77-.54-1.55-.82-2.32l.34-.09c.14.79.29,1.58.43,2.37l.05,0Z"/><path class="cls-1" d="M188,156.17c-.24-.79-.47-1.57-.71-2.35a2.75,2.75,0,0,1,.65,2.32l.06,0Z"/><path class="cls-1" d="M196.14,103.18l-.52,1.2-.27-.07c.14-.4.28-.8.43-1.19a.21.21,0,0,1,.12-.11c.06,0,.11.07.24.17Z"/><path class="cls-1" d="M189.36,88.64l-.72,1.16-.27-.13c.22-.4.43-.8.64-1.2l.35.17Z"/><path class="cls-1" d="M334.25,199c-.11-.8.58-1.05.86-1.58l.35.27L334.2,199Z"/><path class="cls-1" d="M314.64,76.11l1.8.9c-1.09.1-1.54-.24-1.84-.83l0-.07Z"/><path class="cls-1" d="M325.35,228.4l1.44-1.61c-.32,1.2-.8,1.51-1.48,1.58l0,0Z"/><path class="cls-1" d="M256,129.59l-.87-1.29.22-.19c26.72,23.6,4.89,17.83,24.38,43.9-19.48-14.81,1.86-19.47-23.8-42.46l.07,0Z"/><path class="cls-1" d="M273,157.87c-.26,3.83,4.05,5.13,9.76,12.51-1.84-3.5-11.22-5.8-9.76-12.51Z"/><path class="cls-1" d="M265.6,152.2c1.46,3.2,1.8,10,.48,13-.17-4.58-.32-8.75-.48-13Z"/><path class="cls-1" d="M257.82,166c2.1-4.41,1.69-9.08,1.4-13.73,1.82,3.15,1.09,10.4-1.4,13.73Z"/><path class="cls-1" d="M250.08,160.75c.65-2.39.09-4.64-.23-6.9a10.42,10.42,0,0,1,1.79-6.89,15.38,15.38,0,0,1-.32,1.92,20,20,0,0,0-.45,8.33,10.46,10.46,0,0,1-.24,2.83c0,.26-.36.47-.55.71Z"/><path class="cls-1" d="M263.89,154c.87,4.86,1.55,9.71-.94,14.34,1.63-4.69.82-9.55.94-14.34Z"/><path class="cls-1" d="M289,126.15a57.69,57.69,0,0,0-10-.84,19.82,19.82,0,0,1-5.46-1,3.33,3.33,0,0,1,1-.22c3.76.3,7.52.6,11.27,1,1.12.11,2.35,0,3.18,1.08Z"/><path class="cls-1" d="M288.31,170c-2.08-3.42-7.77-5.57-10.64-11.52,2.3,3.91,8,6.08,10.64,11.52Z"/><path class="cls-1" d="M244,120.58c1.54,4.43,1.75,8.83-.35,13.13-.22-1.47.61-2.78.67-4.21s.18-3,.12-4.53-.29-2.92-.44-4.39Z"/><path class="cls-1" d="M237.31,145.76c-2.25-4.1-2.53-9.81-.8-12.55a53.29,53.29,0,0,0-.28,6.13,60.61,60.61,0,0,0,1.08,6.42Z"/><path class="cls-1" d="M282.15,121.19c-2.55-.14-5-.34-7.43-.38s-4.78.1-7.18.08c2.93-1,12-.82,14.61.3Z"/><path class="cls-1" d="M257.56,123.12a39.75,39.75,0,0,1,10.05.15c-1.75.52-8.55.42-10.05-.15Z"/><path class="cls-1" d="M239.44,129.94a34.44,34.44,0,0,0,.93-4.68,33.4,33.4,0,0,0-.3-4.58c1.58,3.37,1.38,7-.63,9.26Z"/><path class="cls-1" d="M257,133.42c.92,3.05,2,5.79.93,8.81-.14-1.44-.25-2.88-.4-4.31s-1-2.73-.53-4.5Z"/><path class="cls-1" d="M238.46,137.55c.31,2.31.63,4.62.94,6.89-1.35-1.22-1.9-4.39-.94-6.89Z"/><path class="cls-1" d="M259.94,142.64q-.53-3.52-1-7c0-.08.16-.18.35-.39a10.81,10.81,0,0,1,.67,7.44Z"/><path class="cls-1" d="M261.22,152c.92,2.49,1.79,5,.34,7.56,0-1.27.1-2.53,0-3.79s-.25-2.51-.38-3.77Z"/><path class="cls-1" d="M247.9,147.12a18.89,18.89,0,0,1-.83,4.22c-.27,1.33-.51,2.67-.77,4.09a14,14,0,0,1,1.6-8.31Z"/><path class="cls-1" d="M242.45,124.64a10.29,10.29,0,0,1-1.08,6.52c.13-1.07.27-2.13.37-3.19s.18-2.28.27-3.42l.44.09Z"/><path class="cls-1" d="M257.31,156c-.14-2.75-.83-5.46-.22-8.26.21,2.74.43,5.48.64,8.23l-.42,0Z"/><path class="cls-1" d="M255,166a18,18,0,0,0,2.48-7.75c.55,2.67-.5,6.16-2.48,7.75Z"/><path class="cls-1" d="M273.19,148.22l4.66,5.06-.32.29a24.12,24.12,0,0,1-4.34-5.35Z"/><path class="cls-1" d="M248.41,131.4c-.08-2.18-.16-4.35-.24-6.57a9.75,9.75,0,0,1,.24,6.57Z"/><path class="cls-1" d="M246.56,128a7,7,0,0,1-.79,4.78,9,9,0,0,1,.79-4.78Z"/><path class="cls-1" d="M268.19,169.76a18.63,18.63,0,0,1,.5-5.86,14.32,14.32,0,0,1-.5,5.86Z"/><path class="cls-1" d="M288.28,165.92l1.25,2a8.91,8.91,0,0,1-3.29-3.51l2.1,1.5-.06,0Z"/><path class="cls-1" d="M283.17,123.69a11.49,11.49,0,0,1-4.58-.13c1.28-.57,2.06-.55,4.58.13Z"/><path class="cls-1" d="M271.93,139.21a4.54,4.54,0,0,1,3.79.23c-1.78.52-2.34.49-3.79-.23Z"/><path class="cls-1" d="M248.39,153.63a6.09,6.09,0,0,1,.8-4.91c-.27,1.63-.54,3.27-.8,4.91Z"/><path class="cls-1" d="M240.89,151.12a3.74,3.74,0,0,1,1.18-3.36c-.11,1.53-.15,1.63-1.18,3.36Z"/><path class="cls-1" d="M288.65,158.5a26.79,26.79,0,0,1,3.28,1.14c-1.33.46-2,.26-3.28-1.14Z"/><path class="cls-1" d="M243.79,149.53c-.38,1.19-.75,2.35-1.15,3.63-.18-2,.08-2.8,1.15-3.63Z"/><path class="cls-1" d="M281.47,166.82l-3.05-2.49c1.54.4,2.06.79,3.05,2.49Z"/><path class="cls-1" d="M240.22,146.2c-.34.87-.68,1.74-1.06,2.73-.41-1.34-.41-1.34,1.06-2.73Z"/><path class="cls-1" d="M261.52,137a5.11,5.11,0,0,1,.43.88,7.83,7.83,0,0,1,.36,3c-.29-1-.59-1.93-.86-2.9a5.87,5.87,0,0,1-.13-.95l.2-.06Z"/><path class="cls-1" d="M264.85,168.81l.6-2.16a2.49,2.49,0,0,1-.13,2.28l-.47-.12Z"/><path class="cls-1" d="M270.45,167.55c.6,1.55.6,1.57-.11,2.89,0-1,.08-1.93.11-2.89Z"/><path class="cls-1" d="M266.41,145.66c-.08-.84-.17-1.69-.25-2.54l.26,0,.33,2.62-.34-.05Z"/><path class="cls-1" d="M272.62,137.22c-1.42.58-1.42.58-2.93-.21l2.93.21Z"/><path class="cls-1" d="M254.92,161.93a3.31,3.31,0,0,1-1.15,2.23c.21-.84.22-1.78,1.22-2.19l-.07,0Z"/><path class="cls-1" d="M288.34,166c.7-.63,1.07-.58,2.24,1.07l-2.3-1.1.06,0Z"/><path class="cls-1" d="M283.78,168.73,285,170l-.19.23a5.41,5.41,0,0,1-1.24-1.3l.26-.21Z"/><path class="cls-1" d="M255.09,159c.06-.8.13-1.59.22-2.62.28,1.06.82,1.9-.26,2.59l0,0Z"/><path class="cls-1" d="M240.76,138.69c.65.65.33,1.18.13,1.87a1.27,1.27,0,0,1-.13-1.87Z"/><path class="cls-1" d="M255,154c0-.65,0-1.31,0-2l.28,0,.09,2-.36,0Z"/><path class="cls-1" d="M241.9,121a1.8,1.8,0,0,1,.68,1.59c-.62-.41-.62-.41-.68-1.59Z"/><path class="cls-1" d="M260.29,165.56l.39-2,.29,0c-.11.66-.23,1.32-.34,2l-.34-.06Z"/><path class="cls-1" d="M255.05,159c.8,1,.3,2-.13,2.94l.07,0a5.23,5.23,0,0,1-.11-.95c0-.67.14-1.33.21-2l0,0Z"/><path class="cls-1" d="M245.6,149.9l-.54,1.44-.27-.08.4-1.54.41.18Z"/><path class="cls-1" d="M245.32,147l-.82,1.13-.25-.17c.24-.4.48-.8.73-1.19l.34.23Z"/><path class="cls-1" d="M231.25,128.05l.92-.28c-.28.77-.44,1.28-.66,1.77-.54,1.26-1.06,2.54-1.68,3.77-1.7,3.41-1,6.66.61,9.83.89,1.7,1.91,3.35,2.86,5a6.09,6.09,0,0,1,.93,3.74,15.6,15.6,0,0,0,2.56,9.8,2.08,2.08,0,0,1,.37,1.4,40.51,40.51,0,0,1-2.73-5,12.34,12.34,0,0,1-.71-4.63A9.62,9.62,0,0,0,232,147.2a21.51,21.51,0,0,1-1.89-3.2c-.83-1.71-1.54-3.48-2.35-5.35a8.58,8.58,0,0,0-.55,1.2c-.48,1.66-1,3.3-1.36,5-.86,4-1.61,8.09-2.09,12.2a16.66,16.66,0,0,0,4.38,13.52,13.15,13.15,0,0,1,3.2,7.19,17.53,17.53,0,0,0,2.82,7c.76,1.14,1.63,2.22,2.42,3.34a1.28,1.28,0,0,1,.24,1,54.42,54.42,0,0,1-4.5-4.75,9.41,9.41,0,0,1-2-6.54c.44,1.48.89,3,1.33,4.45l.36-.13q-.87-2.13-1.72-4.28c.07-.44-.47-.75.06-1.41s-.72-3.7-1.59-3.86a3.22,3.22,0,0,1-2.15-1.72,31,31,0,0,1-3.78-6.8c-.11-.3-.29-.8-.15-1,1.15-1.27,0-2.59.3-3.95-.26.13-.43.17-.45.24-1.21,4.29-2.57,8.55-3,13a17.14,17.14,0,0,0,1.61,10,17.26,17.26,0,0,1,2.42,7.6c0,1.94.16,3.93-.91,5.72h0a16.68,16.68,0,0,1,.15-2,12.3,12.3,0,0,0-.89-7.26c-.5-1.21-1.07-2.38-1.64-3.56a17.47,17.47,0,0,1-1.85-8.16,40.53,40.53,0,0,1,1.34-9.15c1.6-6.19,3.56-12.28,4.79-18.57A71.81,71.81,0,0,1,227.68,137c1.07-3,2.39-6,3.61-9l0,.07Z"/><path class="cls-1" d="M223.89,140.46a13.8,13.8,0,0,1-4.76,6.95A29.94,29.94,0,0,0,208,163.8a14.66,14.66,0,0,1-1.32,3.5,6.11,6.11,0,0,1,0-1c1.25-8.11,5.33-14.58,11.36-20a62.07,62.07,0,0,0,4.45-4.85c.35-.39.69-.8,1-1.2l.4.24Z"/><path class="cls-1" d="M222.66,205.76a4.21,4.21,0,0,1,0-1.32A27,27,0,0,1,224,201a17.16,17.16,0,0,0,1.57-11.62c-.16-.79-.23-1.6-.39-2.68a11.25,11.25,0,0,1,1.55,6.37,22.11,22.11,0,0,1-2.05,8.16c-.56,1.17-.93,2.43-1.39,3.65-.12.3-.26.59-.39.89l-.28,0Z"/><path class="cls-1" d="M221.08,148.7a7.5,7.5,0,0,1-.18,1.17c-1,3-2,6.11-3.15,9.14-.92,2.51-1.95,5-3,7.45a3.23,3.23,0,0,1-1.26,1.54,6.25,6.25,0,0,1,.26-.87,95.72,95.72,0,0,0,4.49-11.93c.54-1.76,1.27-3.48,2-5.19a6.84,6.84,0,0,1,.89-1.28l0,0Z"/><path class="cls-1" d="M210.57,148.51l1.07-.32c-3,5-6.17,9.58-7.84,14.95-.4-1.1-.46-1.13-.09-2.15a22.71,22.71,0,0,1,1.61-3.79c1.48-2.56,3.1-5,4.66-7.55.24-.4.43-.82.64-1.24l-.05.1Z"/><path class="cls-1" d="M211.27,177.25a24,24,0,0,1,1.43,16.45c0-2.79.21-5.6,0-8.37s-.91-5.39-1.4-8.08Z"/><path class="cls-1" d="M208.05,188.42c-.15,1.55-.34,3.1-.44,4.65a34,34,0,0,0-.12,4.51c.11,1.52.49,3,.59,4.53-2.16-4.55-1.31-9.17-.46-13.79l.43.1Z"/><path class="cls-1" d="M219.59,186.41c1.28,4.57,2,9.14,0,13.66l-.42,0c.24-1.09.54-2.17.69-3.27a27,27,0,0,0,.23-3.48c0-1.16-.06-2.33-.15-3.49s-.25-2.25-.38-3.38Z"/><path class="cls-1" d="M232.48,130.49c-.34,1.79-.83,3.57-1,5.38a50.74,50.74,0,0,0,.11,5.34c-2-2.32-1.32-6.83.88-10.72Z"/><path class="cls-1" d="M219.43,159.68c.17-2.16,1.33-4,1.86-6s1.12-4.11,1.79-6.15c.25,1.41-.3,2.71-.61,4a41.85,41.85,0,0,1-1.32,4.35,12.43,12.43,0,0,1-1.72,3.78Z"/><path class="cls-1" d="M214.44,179.52c.33,1.11.65,2.22,1,3.32a23,23,0,0,1,.77,9.19,1.21,1.21,0,0,1-.4.76c-.12-2.24-.13-4.49-.4-6.71s-.81-4.4-1.23-6.6l.26,0Z"/><path class="cls-1" d="M207.63,183c-1.47-3.32-3.07-6.6-2.61-10.72a3.52,3.52,0,0,1,.35.57c0,.2,0,.42,0,.61.55,2.11,1.1,4.23,1.67,6.34.29,1,.62,2.06.93,3.09l-.39.11Z"/><path class="cls-1" d="M222.67,195.73a11.49,11.49,0,0,1-.22,1.56c-.54,1.92-1.25,3.81-1.65,5.75s-.61,4.19-.84,5.94c-.94-2.37.39-9.36,2.75-13.24Z"/><path class="cls-1" d="M228.32,190.88a13.78,13.78,0,0,1-1.5,11.1c.34-1.18.76-2.35,1-3.56a24.92,24.92,0,0,0,.47-3.66c.08-1.29,0-2.59,0-3.88Z"/><path class="cls-1" d="M208.35,175.63c.73,2.25,1.5,4.5,2.19,6.77a7.77,7.77,0,0,1-.2,5,29.12,29.12,0,0,0-.26-3.63,30.12,30.12,0,0,0-1.19-4.35,7,7,0,0,1-.54-3.78Z"/><path class="cls-1" d="M229.55,147.21a12.12,12.12,0,0,1-1.28,11.72c.52-1.94,1.2-3.85,1.53-5.82a14.49,14.49,0,0,0-.25-5.9Z"/><path class="cls-1" d="M214.87,145.58a34.21,34.21,0,0,0,6.43-7.43c-.19,2.52-3.65,6.51-6.43,7.43Z"/><path class="cls-1" d="M210.62,148.41l-4.23,5a6.31,6.31,0,0,1-1.26,1.27c.15-1.65,1.26-2.75,2.24-3.89s2-2.2,3.4-3.66c-.12.8-.16,1.08-.2,1.36l.05-.1Z"/><path class="cls-1" d="M212.47,145.18c.61-1.68,3.07-4.2,5.22-5.36a18.31,18.31,0,0,1-5.22,5.36Z"/><path class="cls-1" d="M216.72,182.23c1.63,3.61,2.33,7.34,1.17,11.27a28.86,28.86,0,0,0-1.17-11.27Z"/><path class="cls-1" d="M219.59,148.7a26.8,26.8,0,0,1-3.37,7.1c-.08-1.25,1.23-4.1,3.37-7.1Z"/><path class="cls-1" d="M233.19,162.37c.13.27.28.55.39.83.76,1.92,1.51,3.84,2.11,5.82a14.38,14.38,0,0,1-2.92-6.5l.42-.15Z"/><path class="cls-1" d="M238.16,180.56c-.28-1.32-.52-2.65-.85-4s-.75-2.55-1.26-4.22c2.36,4,2.86,6.05,2.11,8.18Z"/><path class="cls-1" d="M203.49,189.27a15.48,15.48,0,0,1,1-7.22c.35,1-.19,5.16-1,7.22Z"/><path class="cls-1" d="M217,171.63a8.71,8.71,0,0,1,1.28-6.31c-.42,2.1-.85,4.21-1.28,6.31Z"/><path class="cls-1" d="M203.49,176.88a10.17,10.17,0,0,1-.51-5.72c.6.64.35,1.31.45,1.89s.19,1.22.27,1.83.14,1.3.21,2l-.42,0Z"/><path class="cls-1" d="M232.26,200.82c-.1-2.3-.19-4.6-.29-7a9.17,9.17,0,0,1,.29,7Z"/><path class="cls-1" d="M230.39,193.41c1,1.72.5,3.5.23,5.26-.46-1.74-.07-3.51-.23-5.26Z"/><path class="cls-1" d="M222.47,139.06a6.23,6.23,0,0,1,1.49-4,4.47,4.47,0,0,1-1.49,4Z"/><path class="cls-1" d="M224.94,138.1c.3-1,.58-1.93.91-2.89a4.32,4.32,0,0,1,.78-1.4c.18,1.69-.63,3.05-1.29,4.46l-.4-.17Z"/><path class="cls-1" d="M236.78,166.59c1.17,1.67,2.45,3.28,2.72,5.4-.47-.9-1-1.79-1.42-2.7s-.87-1.8-1.3-2.7Z"/><path class="cls-1" d="M234,194.82a9.7,9.7,0,0,1,.23,5.23,10.68,10.68,0,0,1-.23-5.23Z"/><path class="cls-1" d="M209.35,195a11.73,11.73,0,0,1,.11,5,10.57,10.57,0,0,1-.11-5Z"/><path class="cls-1" d="M206.42,186.14q-.31,2.85-.64,5.72a7.61,7.61,0,0,1,.64-5.72Z"/><path class="cls-1" d="M203.27,181.09c-.38,1.55-.75,3.11-1.21,5a5.1,5.1,0,0,1,1.21-5Z"/><path class="cls-1" d="M231.39,171.13c1.47,2.37,1.47,2.37,1.36,3.75-.16-.21-.32-.32-.37-.48-.34-1.08-.66-2.18-1-3.27Z"/><path class="cls-1" d="M235.1,175.19l-1.2-4c1.27,1.29,1.51,2,1.2,4Z"/><path class="cls-1" d="M210.56,151.58a16.42,16.42,0,0,1,2.69-3.46,6.28,6.28,0,0,1-2.69,3.46Z"/><path class="cls-1" d="M235.81,195.29a3.37,3.37,0,0,1-.05,3.65c0-1.05,0-2.09.05-3.65Z"/><path class="cls-1" d="M221.13,148.73c.12-.53.23-1.07.35-1.6.25.65.26,1.25-.4,1.57l0,0Z"/><path class="cls-1" d="M208.27,156.2l.67-1.21.34.15c-.2.44-.39.87-.59,1.3l-.42-.24Z"/><path class="cls-1" d="M250.86,183.91C259,205.35,253,197.7,280,210.4c-7.6-5.48-26.33-.71-29.11-26.49Z"/><path class="cls-1" d="M249,169.92c4,8.25,14.06,9.61,21.51,15.78-6.62-4.07-17.74-5.48-21.87-15.47l.36-.31Z"/><path class="cls-1" d="M261,220c-2.86-5.88-5-14.46-4.47-17.86,2.29,6,3.07,12,4.47,17.86Z"/><path class="cls-1" d="M270.11,200.17c-2.88-3.75-12.46-5.62-15.36-12.07,3.87,4.59,10.22,6.08,15.65,11.69-.1.12-.19.25-.29.38Z"/><path class="cls-1" d="M242.82,201.57c-.17,4.62-2.6,10.26-5.37,12.18,2.89-3.88,3.92-8.13,5.37-12.18Z"/><path class="cls-1" d="M280.43,202.09c3.22,2.42,5.31,7.4,3.06,10.85.13-4.08.46-5.23-3.06-10.85Z"/><path class="cls-1" d="M271,208.51c3.52,2.62,5.31,6.28,6.33,10.39-1.14-1.8-1-3.31-6.33-10.39Z"/><path class="cls-1" d="M258.73,188.14c4-1.51,9.46-1.24,12.25.5-4.52-.89-4-.82-12.25-.5Z"/><path class="cls-1" d="M271,232.69q-2.17-5.4-4.36-10.79A25.89,25.89,0,0,1,271,232.69Z"/><path class="cls-1" d="M259.93,234.37c-2.21-2-3.1-6.93-2.36-10.22.25,2,.32,3.67.7,5.3s1.07,3.21,1.66,4.92Z"/><path class="cls-1" d="M262.4,196.64c-2.87-.08-5.23-1.83-6.63-5,.65.59,1.29,1.18,2,1.76a23.69,23.69,0,0,0,2,1.7c.75.52,1.59.92,2.63,1.51Z"/><path class="cls-1" d="M261.91,225.74c.38,1.87.62,3.32,1,4.75s1.49,2.47,1.62,3.94c-2.07-2.37-3.37-5-2.6-8.69Z"/><path class="cls-1" d="M264.68,223.63c.18,1.89,2.85,5.72,2.74,9.83-1.1-3.44-2.39-6.5-2.74-9.83Z"/><path class="cls-1" d="M270.06,195.37c2.07,1.45,4.23,3.85,8,5.86-3-.39-5.27-2.1-8-5.91l0,.05Z"/><path class="cls-1" d="M254.57,224.92c.09,3.21.12,6.41,1.31,9.46-2.23-2.91-1.86-6.19-1.31-9.46Z"/><path class="cls-1" d="M248.47,222.11a28.12,28.12,0,0,0,.39,7.86,3.87,3.87,0,0,1-.68-1,11.9,11.9,0,0,1,.29-6.84Z"/><path class="cls-1" d="M251.07,176l6,5.29c-2.74-.92-4.52-2.93-6-5.29Z"/><path class="cls-1" d="M256.53,183.89a6.67,6.67,0,0,1-5-4.82l5,4.82Z"/><path class="cls-1" d="M251,220a33.79,33.79,0,0,1-.41,7.65c-.75-2.59,0-5.11.41-7.65Z"/><path class="cls-1" d="M268.44,194.07a24.91,24.91,0,0,1-7.1-4.43,18.06,18.06,0,0,1,7.07,4.47l0,0Z"/><path class="cls-1" d="M273.18,231.58c-1.5-1.9-1.55-4.4-3-8.6l0,.07c1.59,1.71,2.13,4.24,3,8.59l0-.06Z"/><path class="cls-1" d="M254.52,207.89c-.21-.07-.42-.09-.43-.15-.4-2.27-.78-4.53-1.23-7.21a14.19,14.19,0,0,1,1.66,7.36Z"/><path class="cls-1" d="M246.28,229.44l-.92-4.6c.19,0,.37-.07.54-.12l.53-.15c.11,1.61.21,3.19.32,4.76l-.47.11Z"/><path class="cls-1" d="M239,204.21a8.33,8.33,0,0,1-1.76,6.25c.59-2.1,1.14-4.07,1.76-6.25Z"/><path class="cls-1" d="M276.7,224.56c-.53-1.76-.95-3.19-1.4-4.69,1.5,1.07,2,2.57,1.4,4.69Z"/><path class="cls-1" d="M275.19,225l-2.31-6.49a11.64,11.64,0,0,1,2.31,6.49Z"/><path class="cls-1" d="M262.31,234c-1.69-.93-2.19-2.58-2.63-4.78l2.63,4.78Z"/><path class="cls-1" d="M256.91,195.09l3.81,3.34c-1.68-.58-2.58-1.31-3.81-3.34Z"/><path class="cls-1" d="M272.7,224c.58,1.06,1.69,1.91,1.12,3.4-.25-.84,0,.36-1.12-3.4Z"/><path class="cls-1" d="M251.05,199.93a9.44,9.44,0,0,1,1.09,4.49,7.51,7.51,0,0,1-1.09-4.49Z"/><path class="cls-1" d="M253.14,232.49a5,5,0,0,1-.95-4.4c.37,1.7.66,3,.95,4.4Z"/><path class="cls-1" d="M260.12,200.59a3.48,3.48,0,0,1-2.27-2.26l2.53,1.87-.26.39Z"/><path class="cls-1" d="M270.16,223c-1.33-.55-.62.14-1.91-2.68a6,6,0,0,1,1.87,2.75l0-.07Z"/><path class="cls-1" d="M235.64,208.61c.29-1,.59-2,1-3.48.41,1.62-.27,2.56-.47,3.59l-.54-.11Z"/><path class="cls-1" d="M257.08,232.41c-.81-.66-.77-1.5-.59-2.73a4.3,4.3,0,0,1,.59,2.73Z"/><path class="cls-1" d="M249.43,199.6c.21.71.43,1.42.63,2.13a6.07,6.07,0,0,1,.24,1.6c-.9-1.06-.9-2.41-1.33-3.62l.46-.11Z"/><path class="cls-1" d="M260,223.91c0,1,0,1.91,0,3.29-.91-1.35-.42-2.31-.54-3.26l.53,0Z"/><path class="cls-1" d="M247.89,201.66a7.1,7.1,0,0,1-.42-.88,5.3,5.3,0,0,1-.27-1.59,2.65,2.65,0,0,1,.69,2.47Z"/><path class="cls-1" d="M268.41,194.11a2.08,2.08,0,0,1,1.65,1.26l0-.05a1.9,1.9,0,0,1-1.65-1.25l0,0Z"/><path class="cls-1" d="M298.65,195.21c4.07-1.64,10.24-.59,16.9-.79l0,.41c-4.07,1-10-.42-16.84.84l-.09-.46Z"/><path class="cls-1" d="M315.72,205.71l-15.25,2.21a49.79,49.79,0,0,1,15.26-2.69c0,.16,0,.32,0,.48Z"/><path class="cls-1" d="M311.53,179.53c-1.07,3.3-6.17,8.1-11.81,7.76,5.24-.95,8.59-4.06,11.81-7.76Z"/><path class="cls-1" d="M302.28,220.75c-3.57,3.2-11.44,6.56-15.11,6.34A60.78,60.78,0,0,0,302.28,220.75Z"/><path class="cls-1" d="M288.46,189.35c.18-2-.73-7.38,1.25-11.86a77.75,77.75,0,0,1-.93,11.88l-.32,0Z"/><path class="cls-1" d="M321.65,195.65c-4.53.93-8.75,1.61-13.1,1.13C311.9,196.61,316.37,195.09,321.65,195.65Z"/><path class="cls-1" d="M308.24,174.44c.18,3.07-3.06,7.44-6.63,9,1.23-1.69,3-2,6.63-9Z"/><path class="cls-1" d="M298.76,220.06c3.52-2.27,6.44-5.45,11.91-7.92-3.75,2.4-4.91,4.59-12,7.89l.05,0Z"/><path class="cls-1" d="M308.13,201.82c3.92-1.54,7.9-2.9,12.23-2a63.51,63.51,0,0,0-12.23,2Z"/><path class="cls-1" d="M301.18,173.67c-.05,2.53-2.59,6.58-4.93,8.11q2.4-3.93,4.93-8.11Z"/><path class="cls-1" d="M309.66,177.08c-.22,2.9-2.1,4.93-6.59,7.21,1.78-2,4.23-2.7,6.59-7.21Z"/><path class="cls-1" d="M284.77,185.83c-.21-3.11-.25-6.09,1.43-9.14.23,3.44-.52.21-1.43,9.14Z"/><path class="cls-1" d="M282.49,184.15a9.46,9.46,0,0,1,.95-7c.31,2.89-.37,1.12-.95,7Z"/><path class="cls-1" d="M317.73,204.05l-6.75.61A13.81,13.81,0,0,1,317.73,204.05Z"/><path class="cls-1" d="M303.08,214.63c1.65-1.84,4.23-3,5.84-2.72l-5.84,2.72Z"/><path class="cls-1" d="M283.19,225.35l7.44-2c-2.48,1.46-5.72,2.33-7.44,2Z"/><path class="cls-1" d="M292.15,222c-1.06.93-2.38.93-3.91,1,.77-.84-.11-.05,3.79-1.44l.12.42Z"/><path class="cls-1" d="M296.4,176.49a4.76,4.76,0,0,1,1.56-2.81c.3,1.51,0,2-1.56,2.81Z"/><path class="cls-1" d="M287.83,179.47c-.2,1.37-.41,2.75-.62,4.12a6.5,6.5,0,0,1,.16-4.16Z"/><path class="cls-1" d="M307.91,217.67a10,10,0,0,1,1.93-1.83l.23.33-2.21,1.47.05,0Z"/><path class="cls-1" d="M279.8,180c0-.69.08-1.38,1-1.79l-.54,2-.43-.18Z"/><path class="cls-1" d="M319.4,198.2l-2.34.07c.81-.29.17-.64,2.34-.07Z"/><path class="cls-1" d="M298.71,220a3.58,3.58,0,0,1-2.73.87l2.78-.84-.05,0Z"/><path class="cls-1" d="M298.81,183.22,297.47,185l-.34-.3c.5-.57.85-1.28,1.73-1.49l-.05,0Z"/><path class="cls-1" d="M277.73,179.73c.19-.55.39-1.11.58-1.67.58.76.22,1.28-.08,1.81l-.5-.14Z"/><path class="cls-1" d="M305,175.1c-.29.45-.57.91-.85,1.36l-.35-.19.72-1.43Z"/><path class="cls-1" d="M298.86,183.25a2.81,2.81,0,0,1,1.55-1.83l.09.06a2.34,2.34,0,0,1-1.69,1.74l.05,0Z"/><path class="cls-1" d="M307.86,217.64c-.22.9-.94,1.09-1.77,1.11l1.82-1.08-.05,0Z"/><path class="cls-1" d="M318.49,202.2l-1.54.15c.36-.65-.05-.28,1.54-.62v.47Z"/><path class="cls-1" d="M300.41,181.42a1.5,1.5,0,0,1,1.34-1.26l-1.25,1.32-.09-.06Z"/><path class="cls-1" d="M300.22,108.91l-4.83,0,4.65,4.31-.14.25L299,113a.48.48,0,0,1-.17-.12c-3.15-3.12-7-5-11.1-6.56-2.94-1.17-5.77-2.61-8.71-3.78-1.7-.68-3.51-1.06-5.24-1.57a6.42,6.42,0,0,1,4.17.16c2,.7,4,1.53,5.94,2.36,1.33.57,2.59,1.29,3.93,1.85,1.06.44,2.18.75,3.28,1.11a3.4,3.4,0,0,1,.59.19c2.32,1.44,5,1.53,7.56,1.75a8.4,8.4,0,0,1,1,.19c0,.1,0,.2,0,.3Z"/><path class="cls-1" d="M298,94.4c1,.23,1.65.34,2.28.52a24.69,24.69,0,0,0,11.43.57,5.86,5.86,0,0,1,3.61.42c1.06.5,2.12,1,3.14,1.57a5.66,5.66,0,0,1,2.77,3.68l-5.2-3.45a7.32,7.32,0,0,0-5.49-.94,22,22,0,0,1-12.11-1.6c-.09,0-.13-.22-.43-.77Z"/><path class="cls-1" d="M264.07,107.55c4.1-.29,10.15,1.56,12.47,3.91-4.14-2.17-8.3-3-12.47-3.91Z"/><path class="cls-1" d="M275.33,112.12l-7-2.08c1.47-.37,4.94.67,7,2.1v0Z"/><path class="cls-1" d="M267,106a9.16,9.16,0,0,1,5.9,1.72L267,106Z"/><path class="cls-1" d="M278,108.33l3.58,1.73-.19.38a7,7,0,0,1-3.62-1.58c.08-.18.16-.35.23-.53Z"/><path class="cls-1" d="M281.66,113.34a4.72,4.72,0,0,1-2.75-1.3,5.48,5.48,0,0,1,2.85,1.1,1.24,1.24,0,0,0-.1.2Z"/><path class="cls-1" d="M289.68,95.34c.82-.49,1.56,0,2.31.23a3.5,3.5,0,0,1-2.29-.28l0,0Z"/><path class="cls-1" d="M275.33,112.14l1.8.34c-1,.44-1.45.15-1.8-.36v0Z"/><path class="cls-1" d="M281.76,113.14l1.76.5a1.61,1.61,0,0,1-1.86-.3,1.24,1.24,0,0,1,.1-.2Z"/><path class="cls-1" d="M228.89,95.7c-.6-3.16-1.37-6.3-1.73-9.49a16.43,16.43,0,0,1,.56-5.29c.42-1.93,1.54-3.12,3.64-4.38a14,14,0,0,1-.71,1.3,12.77,12.77,0,0,0-2.35,9c.21,2.18.59,4.35.86,6.54.09.73.08,1.48.11,2.23l-.38.1Z"/><path class="cls-1" d="M233.29,89.75a37.77,37.77,0,0,1,2.74-3,10.26,10.26,0,0,0,3.48-7.43c.1-2.15.59-4.17,2.45-5.65a3.66,3.66,0,0,1-.28.56,9.67,9.67,0,0,0-1.51,5.27,10,10,0,0,1-3.4,7.45c-1.1,1-2.1,2.1-3.15,3.15l-.33-.31Z"/><path class="cls-1" d="M233.4,82.08a11.66,11.66,0,0,1,2.72-9l-2.72,9Z"/><path class="cls-1" d="M229.33,117.66c-.89-1.71-2.34-3.11-2.77-5.15,1.78,1.52,2.95,3.6,2.77,5.15Z"/><path class="cls-1" d="M237.7,81.59A10.63,10.63,0,0,1,240,73.74c-.55,1.65-1,2.87-1.36,4.11s-.62,2.49-.93,3.74Z"/><path class="cls-1" d="M231.88,78.86c-.71,2.64-1.32,4.88-1.95,7.18-.41-1.93.34-4.9,1.95-7.18Z"/><path class="cls-1" d="M228.75,120.5l-3.06-5.63a7.16,7.16,0,0,1,3.06,5.63Z"/><path class="cls-1" d="M225.21,116.9c1.2,1.61,2.48,3.14,2.11,5.61-.77-2.06-1.44-3.83-2.11-5.61Z"/><path class="cls-1" d="M226,110.61a4.28,4.28,0,0,1,3,2.29,3.15,3.15,0,0,1-1.67-1c-.44-.43-.87-.87-1.3-1.3Z"/><path class="cls-1" d="M238.6,72.62a2.36,2.36,0,0,1-.89,2.28,2.52,2.52,0,0,1,.89-2.28Z"/><path class="cls-1" d="M236.32,78.51a1.57,1.57,0,0,1-.07-.55,3.41,3.41,0,0,1,.49-1.06,2.08,2.08,0,0,1-.47,1.59l0,0Z"/><path class="cls-1" d="M236.27,78.49c-.05.72-.1,1.45-.19,2.66-.43-1.5-.43-1.5.24-2.64l0,0Z"/><path class="cls-1" d="M239.93,104.46a8.79,8.79,0,0,1,4.23-5.36l-4.23,5.36Z"/><path class="cls-1" d="M260.21,87.77l-1.06.39c.48-1.07,1-2.09,1.39-3.17s.49-2.12.84-3.17a7.88,7.88,0,0,1-.54,4.34c-.2.57-.45,1.13-.67,1.69l0-.08Z"/><path class="cls-1" d="M204.73,127.39a28.2,28.2,0,0,0,10.46-8.07c.46.59.1,1.05-.21,1.47a17.71,17.71,0,0,1-6.46,5.35,24.43,24.43,0,0,1-2.48,1,7,7,0,0,1-1.31.22Z"/><path class="cls-1" d="M206.71,134.06c2.08-1.22,4-2.16,5.78-3.42a63.63,63.63,0,0,0,5-4.43c-1.76,3.9-7,7.72-10.75,7.85Z"/><path class="cls-1" d="M215.21,125.55c-1.48,3-5.5,5.84-8.37,6a34,34,0,0,0,8.37-6Z"/><path class="cls-1" d="M205.94,123.45l5.69-4.3c-.2.6-.22,1-.43,1.24a13.6,13.6,0,0,1-4.95,3.47l-.31-.41Z"/><path class="cls-1" d="M209.39,118.7c-1.15,1.63-2.88,2.49-5,3.57.71-1.27,1.69-1.6,2.41-2.2s1.48-1.14,2.23-1.71c.11.12.22.23.34.34Z"/><path class="cls-1" d="M210.25,126.67c-.72,1.43-2.06,1.82-3.26,2.4-.24.11-.58,0-1-.32l4.22-2.08Z"/><path class="cls-1" d="M206.61,117.82a5.64,5.64,0,0,1-2.51,2.75,3.17,3.17,0,0,1,2.51-2.75Z"/><path class="cls-1" d="M218.09,121.38A3.55,3.55,0,0,1,216,123.9a3.86,3.86,0,0,1,2.13-2.52Z"/><path class="cls-1" d="M308.35,90.25a8.92,8.92,0,0,0-4.86,0,7.88,7.88,0,0,1-6.72-1.27l1.46.44a8.61,8.61,0,0,0,5,.18,7.35,7.35,0,0,1,4.45.09c.24.08.39.43.58.65l0,0Z"/><path class="cls-1" d="M308.31,90.3c1-.57,1.49.13,2.46,1l-2.54-.21,0,.07c.16-.29,1.32-.41.15-.91l0,0Z"/><path class="cls-1" d="M302.65,88.79l-2.23-.16c1.17-.47,1.17-.45,2.23.16Z"/><path class="cls-1" d="M209.64,108.12c1-1.27,2-1.67,3.86-1.65l-3.86,1.65Z"/></svg>